<svg xmlns="http://www.w3.org/2000/svg" viewBox="0 0 33.47 72"><polygon points="33.47 29.9 32.07 25.15 30.48 25.97 26.9 25.82 26.35 25.07 27.98 23.99 31.1 21.93 31.48 15.99 32.67 12.57 32.91 10.21 29.89 8.14 21.93 4.38 15.14 0 11.26 3.54 10.64 7.58 7.54 11.23 7.04 12.76 8.47 14.71 7.63 18.45 4.54 19.44 5.01 22.45 4.96 23.64 8.42 24.57 9.18 28.29 16.3 34.86 16.06 36.42 11.12 39.93 8.42 42.71 5.64 46.02 1.86 47.17 1.43 49.1 0 52.35 0.9 55.16 4.49 59.58 10.28 63.54 15.37 65.13 15.33 67.12 14.09 68.26 13.94 71.84 14.98 72 18.2 69.3 20.2 63.2 24.52 58.53 29.87 50.69 32.4 43.74 31.84 42.19 33.47 29.9"/></svg>