<svg xmlns="http://www.w3.org/2000/svg" xmlns:xlink="http://www.w3.org/1999/xlink" viewBox="0 0 864 432"><defs><style>.cls-1{fill:url(#linear-gradient);}.cls-2{fill:#142b5f;}.cls-3{fill:#fff;}</style><linearGradient id="linear-gradient" x1="432" y1="18" x2="432" y2="414" gradientUnits="userSpaceOnUse"><stop offset="0" stop-color="#3995ea"/><stop offset="1" stop-color="#fff"/></linearGradient></defs><g id="Design"><rect class="cls-1" x="18" y="18" width="828" height="396"/><path class="cls-2" d="M272.62,42.89a23.29,23.29,0,0,1,11.78,2.89l2.38,1.38a2.58,2.58,0,0,0,1.3.43,1.2,1.2,0,0,0,1.09-.58l.76-1.12a.7.7,0,0,1,.65-.29c.74,0,1.12.79,1.12,2.35l0,2.64v3.29l.29,2.74.33,1.63a12.42,12.42,0,0,1,.21,2.13c0,.92-.33,1.37-1,1.37-.38,0-.64-.28-.76-.86a15.9,15.9,0,0,0-2-4.2,27.59,27.59,0,0,0-3.28-4.49q-6.28-6.78-14-6.78A13.33,13.33,0,0,0,260.41,51q-4.28,5.61-4.27,14.56,0,11.68,7,18.65,5.25,5.19,11.43,5.19a19.75,19.75,0,0,0,7.74-1.74,18.21,18.21,0,0,0,6.44-4.34l2.35-2.56a1.58,1.58,0,0,1,1-.61c.46,0,.68.24.68.8q0,1.47-2.85,4.73a23.68,23.68,0,0,1-18.46,8.46q-10.64,0-17.26-6.8T247.54,69.7A28.8,28.8,0,0,1,250,58a25.4,25.4,0,0,1,6.64-9.28A23.73,23.73,0,0,1,272.62,42.89Z"/><path class="cls-2" d="M313.88,62.66A15.51,15.51,0,0,1,325.16,67a14.73,14.73,0,0,1,4.44,11,15.37,15.37,0,0,1-4.82,11.53,16.67,16.67,0,0,1-12,4.64,15.67,15.67,0,0,1-11.25-4.3A14.29,14.29,0,0,1,297,79.08a15.6,15.6,0,0,1,4.93-11.62A16.5,16.5,0,0,1,313.88,62.66Zm-1.87,2a6.39,6.39,0,0,0-5.54,2.95,13.67,13.67,0,0,0-2.05,8,21.12,21.12,0,0,0,3.16,11.73q3.17,4.91,7.63,4.9a6.67,6.67,0,0,0,5.53-2.79,11.5,11.5,0,0,0,2.14-7.18,23.17,23.17,0,0,0-3.17-12.45Q316.55,64.64,312,64.65Z"/><path class="cls-2" d="M367.54,77.94v7.32a13.16,13.16,0,0,0,.25,3.19,3.5,3.5,0,0,0,1.16,1.6,6.17,6.17,0,0,0,3.32,1.26c.75.1,1.12.39,1.12.87,0,.72-.85,1.08-2.57,1.08a12.64,12.64,0,0,1-1.56-.13l-2.35-.28c-1.06-.11-1.89-.17-2.5-.17a28.55,28.55,0,0,0-5.5.43,8.39,8.39,0,0,1-1.45.15.7.7,0,0,1-.8-.79c0-.39.28-.69.83-.91a3.43,3.43,0,0,0,2.14-1.69,10.08,10.08,0,0,0,.54-3.91V77.44a13.67,13.67,0,0,0-2-7.79,6.13,6.13,0,0,0-5.34-2.87A7,7,0,0,0,348,68.44a5.55,5.55,0,0,0-1.85,4.33v12c0,2.21.41,3.83,1.25,4.85a5.81,5.81,0,0,0,4.2,1.79c.68.07,1,.35,1,.83,0,.67-.43,1-1.27,1a27.13,27.13,0,0,1-2.86-.18,54.55,54.55,0,0,0-5.65-.51A35,35,0,0,0,338,93a14.25,14.25,0,0,1-1.78.19c-.6,0-.9-.25-.9-.76a.82.82,0,0,1,.61-.76,4.68,4.68,0,0,0,2.35-1.5,6.06,6.06,0,0,0,.51-3l0-1.19V73.28l0-1.41a8.46,8.46,0,0,0-.53-3.59,2,2,0,0,0-1.93-1h-1.66a.67.67,0,0,1-.54-.21.74.74,0,0,1-.18-.55,1,1,0,0,1,.54-1,22.36,22.36,0,0,1,3.19-.92,22,22,0,0,0,7.58-3.15.75.75,0,0,1,.47-.22c.28,0,.43.21.43.69L346,63.78l0,2.06.22,1.37c.1.29.26.45.47.47s.58-.3,1.16-1a10.78,10.78,0,0,1,8.76-4q5.88,0,8.4,3.55C366.7,68.57,367.54,72.49,367.54,77.94Z"/><path class="cls-2" d="M409.42,77.94v7.32a13.16,13.16,0,0,0,.25,3.19,3.43,3.43,0,0,0,1.16,1.6,6.14,6.14,0,0,0,3.32,1.26c.75.1,1.12.39,1.12.87,0,.72-.86,1.08-2.57,1.08a12.64,12.64,0,0,1-1.56-.13l-2.35-.28c-1.06-.11-1.9-.17-2.5-.17a28.55,28.55,0,0,0-5.5.43,8.39,8.39,0,0,1-1.45.15.7.7,0,0,1-.8-.79c0-.39.28-.69.83-.91a3.38,3.38,0,0,0,2.13-1.69,9.85,9.85,0,0,0,.55-3.91V77.44a13.67,13.67,0,0,0-2-7.79,6.13,6.13,0,0,0-5.34-2.87,7,7,0,0,0-4.87,1.66A5.51,5.51,0,0,0,388,72.77v12a7.66,7.66,0,0,0,1.24,4.85,5.84,5.84,0,0,0,4.21,1.79c.68.07,1,.35,1,.83,0,.67-.42,1-1.26,1a27.13,27.13,0,0,1-2.86-.18,54.55,54.55,0,0,0-5.65-.51,35,35,0,0,0-4.85.39,14.25,14.25,0,0,1-1.78.19c-.6,0-.9-.25-.9-.76a.82.82,0,0,1,.61-.76,4.68,4.68,0,0,0,2.35-1.5,6.06,6.06,0,0,0,.51-3l0-1.19V73.28l0-1.41a8.46,8.46,0,0,0-.53-3.59,2,2,0,0,0-1.93-1h-1.66a.69.69,0,0,1-.55-.21.74.74,0,0,1-.18-.55,1,1,0,0,1,.55-1,21.92,21.92,0,0,1,3.19-.92,22,22,0,0,0,7.57-3.15.8.8,0,0,1,.47-.22c.29,0,.44.21.44.69l-.11,1.81,0,2.06.22,1.37c.1.29.25.45.47.47s.58-.3,1.16-1a10.78,10.78,0,0,1,8.76-4q5.88,0,8.4,3.55C408.58,68.57,409.42,72.49,409.42,77.94Z"/><path class="cls-2" d="M432.22,62.59a12.66,12.66,0,0,1,9.64,4.4q3.4,3.74,3.4,7.45,0,1.41-1.95,1.41l-1.65-.08h-.84l-2.2,0-6.81.11-3.57,0-1.23,0a2.23,2.23,0,0,0-1.33.25,1.76,1.76,0,0,0-.4,1.34A12.69,12.69,0,0,0,428.4,86a9.25,9.25,0,0,0,7.19,3.68A10.05,10.05,0,0,0,442.91,87l1.16-1.13a.83.83,0,0,1,.61-.29c.53,0,.8.25.8.75q0,1.05-2.78,3.51a15.73,15.73,0,0,1-10.56,4.34A13.19,13.19,0,0,1,422,89.87,15.79,15.79,0,0,1,418,78.77a16.71,16.71,0,0,1,4.21-11.38A12.86,12.86,0,0,1,432.22,62.59Zm-1,1.84a5.31,5.31,0,0,0-4.28,2.4,9.08,9.08,0,0,0-1.83,5.67c0,.69.17,1.11.52,1.25a10.05,10.05,0,0,0,2.82.22c.79,0,1.63,0,2.52-.07,2.15-.1,3.4-.15,3.73-.15,2.11,0,3.16-.64,3.16-1.94a7.4,7.4,0,0,0-2-5.14A6.1,6.1,0,0,0,431.21,64.43Z"/><path class="cls-2" d="M466.94,62.66q5.82,0,7.95,3a5.55,5.55,0,0,1,1.34,3q0,1.16-3.27,3l-1.53.87a1.54,1.54,0,0,1-.62.22c-.63,0-1-.46-1.05-1.37a7,7,0,0,0-2-4.51,5.57,5.57,0,0,0-4.11-1.89,5.93,5.93,0,0,0-5,2.86,12,12,0,0,0-2,7.1q0,6.58,3,10.81a9,9,0,0,0,7.59,4.23,14.36,14.36,0,0,0,8.22-3l.44-.22c.38,0,.57.18.57.61,0,.86-.9,1.93-2.71,3.22a17,17,0,0,1-10.29,3.62,13.25,13.25,0,0,1-9.94-4.07,14.1,14.1,0,0,1-3.94-10.26,16.59,16.59,0,0,1,4.93-12.29A17,17,0,0,1,466.94,62.66Z"/><path class="cls-2" d="M491,67.17V84.81c0,2.14.32,3.63,1,4.48a4,4,0,0,0,3.38,1.26,8.83,8.83,0,0,0,2.51-.49,6.91,6.91,0,0,0,2.19-1,1.2,1.2,0,0,1,.58-.3c.29,0,.47.25.54.74l.07.37-.43.63a13.29,13.29,0,0,1-9.24,3.65c-2.7,0-4.69-.62-5.95-1.84s-1.9-3.13-1.9-5.71V67.17H481.5c-1.15,0-1.73-.31-1.73-1,0-.39.3-.8.9-1.21a33.72,33.72,0,0,0,4.47-4A32.47,32.47,0,0,0,489,56.48c.74-1.18,1.3-1.76,1.66-1.74.19,0,.3.21.32.55v8.38h5.24a3.58,3.58,0,0,0,2.06-.47l.94-.61a1.32,1.32,0,0,1,.65-.26c.41,0,.61.17.58.59a2.84,2.84,0,0,1-.25.8,6.41,6.41,0,0,0-.43,1.6c-.27,1.24-.93,1.85-2,1.85Z"/><path class="cls-2" d="M515.36,64.21V84.64q0,3.67,1.1,5.12c.74,1,2.1,1.5,4.1,1.62.8.05,1.19.34,1.19.85s-1,1-2.86,1c-.24,0-.76,0-1.55-.1l-2.72-.27q-2.25-.21-3-.21a35.5,35.5,0,0,0-5.18.51,8,8,0,0,1-1.23.14c-.5,0-.76-.23-.76-.7a.81.81,0,0,1,.47-.74l1.23-.62a3.26,3.26,0,0,0,1.36-1.87,8.73,8.73,0,0,0,.56-3.1l0-1.51V72.51a8.76,8.76,0,0,0-.6-3.89,2.23,2.23,0,0,0-2.15-1.08h-.83a1.19,1.19,0,0,1-.94-.3.92.92,0,0,1-.11-.51c0-.61.74-1.08,2.22-1.4a22.08,22.08,0,0,0,8.66-3.5,1.31,1.31,0,0,1,.61-.26q.51,0,.51.69l0,.32C515.37,62.8,515.36,63.34,515.36,64.21Zm-3.89-19.73q.76,0,2.7,2.46l1.52,2a2.32,2.32,0,0,1,.57,1.27c0,.57-.63,1.67-2,3.28s-2.27,2.42-2.77,2.42a1.4,1.4,0,0,1-1-.43l-1.69-2.06-1.59-1.81a2.17,2.17,0,0,1-.61-1.22c0-.49.71-1.58,2.12-3.29S511.09,44.48,511.47,44.48Z"/><path class="cls-2" d="M541.34,62.66q5.82,0,7.95,3a5.52,5.52,0,0,1,1.33,3q0,1.16-3.27,3l-1.52.87a1.54,1.54,0,0,1-.62.22c-.63,0-1-.46-1.05-1.37a7,7,0,0,0-2-4.51,5.57,5.57,0,0,0-4.11-1.89,5.94,5.94,0,0,0-5,2.86,12,12,0,0,0-2,7.1q0,6.58,3,10.81a9,9,0,0,0,7.59,4.23,14.36,14.36,0,0,0,8.22-3l.43-.22c.39,0,.58.18.58.61,0,.86-.9,1.93-2.71,3.22a17,17,0,0,1-10.3,3.62,13.23,13.23,0,0,1-9.93-4.07A14.1,14.1,0,0,1,524,79.84a16.59,16.59,0,0,1,4.93-12.29A17,17,0,0,1,541.34,62.66Z"/><path class="cls-2" d="M586.25,63.05V85.43c0,2.31.19,3.73.58,4.27s1.42.82,3.11.82l.83,0a2.16,2.16,0,0,1,.65.07.81.81,0,0,1,.61.81q0,1.29-2.46,1.29h-1.74c-1,0-1.76,0-2.32.07a30.89,30.89,0,0,0-5.15.87,2.33,2.33,0,0,1-.65.11c-.53,0-.79-.45-.79-1.34a8.69,8.69,0,0,1,.07-1.23c0-.48.07-.84.07-1.08,0-.73-.15-1.1-.47-1.12-.12,0-.31.14-.58.43l-1.29,1.34a10.67,10.67,0,0,1-8,3.47c-3.55,0-6.24-1-8-3S558,86.31,558,82.44q0-7.69.29-13.32c0-.67,0-1.25,0-1.73q0-2.46-2.13-2.64l-1.45-.1c-.67-.05-1-.38-.94-1q0-.69,1.11-.93a22.57,22.57,0,0,1,4.11-.24,15.92,15.92,0,0,0,5-.73,5.81,5.81,0,0,1,1.52-.28c.41,0,.62.27.62.83s0,1.31-.07,2q-.33,3.82-.33,13.39c0,4.91.44,8.18,1.33,9.83S569.79,90,572.45,90a6.13,6.13,0,0,0,4.81-1.87A7.78,7.78,0,0,0,579,82.72V69.29c0-2-.18-3.29-.56-3.76s-1.42-.81-3.16-1c-.75-.07-1.12-.37-1.12-.88,0-.76.72-1.14,2.17-1.14q6.32,0,8.74-.87a2.26,2.26,0,0,1,.76-.18q.51,0,.51.72Z"/><path class="cls-2" d="M606.23,67.17V84.81c0,2.14.32,3.63,1,4.48a4,4,0,0,0,3.38,1.26,8.89,8.89,0,0,0,2.51-.49,6.91,6.91,0,0,0,2.19-1,1.18,1.18,0,0,1,.57-.3c.29,0,.47.25.55.74l.07.37-.44.63a13.25,13.25,0,0,1-9.23,3.65c-2.7,0-4.69-.62-6-1.84s-1.9-3.13-1.9-5.71V67.17h-2.2c-1.16,0-1.74-.31-1.74-1,0-.39.31-.8.91-1.21a33.17,33.17,0,0,0,4.46-4,31.11,31.11,0,0,0,3.88-4.52c.75-1.18,1.31-1.76,1.67-1.74.19,0,.3.21.32.55v8.38h5.24a3.58,3.58,0,0,0,2.06-.47l.94-.61a1.28,1.28,0,0,1,.65-.26c.41,0,.6.17.58.59a3.21,3.21,0,0,1-.25.8,6.77,6.77,0,0,0-.44,1.6c-.26,1.24-.93,1.85-2,1.85Z"/><path class="cls-2" d="M240.71,344.46a17.9,17.9,0,0,1,9.07,2.22l1.84,1.06a2,2,0,0,0,1,.34.93.93,0,0,0,.84-.45l.58-.86a.54.54,0,0,1,.5-.23c.58,0,.87.61.87,1.81l0,2v2.53l.23,2.11.25,1.26a9.32,9.32,0,0,1,.16,1.64c0,.7-.26,1.06-.78,1.06-.29,0-.49-.23-.58-.67a12.18,12.18,0,0,0-1.55-3.24,20.9,20.9,0,0,0-2.52-3.45q-4.84-5.22-10.78-5.22a10.25,10.25,0,0,0-8.55,4.32q-3.3,4.32-3.29,11.21,0,9,5.38,14.36a12.31,12.31,0,0,0,8.8,4,15.13,15.13,0,0,0,6-1.35,14.07,14.07,0,0,0,5-3.34l1.81-2a1.22,1.22,0,0,1,.75-.47c.36,0,.53.19.53.61,0,.76-.73,2-2.2,3.65A18.24,18.24,0,0,1,239.79,384q-8.17,0-13.29-5.23t-5.11-13.61a22.11,22.11,0,0,1,1.93-9,19.47,19.47,0,0,1,5.12-7.15A18.23,18.23,0,0,1,240.71,344.46Z"/><path class="cls-2" d="M272.49,359.68a11.92,11.92,0,0,1,8.69,3.34,11.33,11.33,0,0,1,3.42,8.48,11.83,11.83,0,0,1-3.71,8.88,12.85,12.85,0,0,1-9.26,3.57,12,12,0,0,1-8.67-3.31,11,11,0,0,1-3.46-8.31,12,12,0,0,1,3.8-8.95A12.66,12.66,0,0,1,272.49,359.68Zm-1.44,1.53a5,5,0,0,0-4.27,2.28,10.55,10.55,0,0,0-1.58,6.12,16.33,16.33,0,0,0,2.44,9q2.44,3.77,5.88,3.77a5.12,5.12,0,0,0,4.26-2.15,8.86,8.86,0,0,0,1.64-5.53,17.91,17.91,0,0,0-2.43-9.59C275.36,362.53,273.38,361.21,271.05,361.21Z"/><path class="cls-2" d="M313.82,371.45v5.64a10.11,10.11,0,0,0,.2,2.46,2.68,2.68,0,0,0,.89,1.23,4.77,4.77,0,0,0,2.56,1c.58.08.86.3.86.67q0,.84-2,.84a9.9,9.9,0,0,1-1.2-.11l-1.81-.21a18.48,18.48,0,0,0-1.92-.13,21.7,21.7,0,0,0-4.24.33,6.21,6.21,0,0,1-1.12.12.54.54,0,0,1-.61-.62c0-.29.21-.53.64-.69a2.66,2.66,0,0,0,1.64-1.31,7.67,7.67,0,0,0,.42-3v-6.56a10.53,10.53,0,0,0-1.51-6,4.73,4.73,0,0,0-4.11-2.22,5.44,5.44,0,0,0-3.76,1.28,4.29,4.29,0,0,0-1.42,3.34v9.28a5.9,5.9,0,0,0,1,3.74,4.46,4.46,0,0,0,3.24,1.37c.52.06.78.27.78.64s-.33.78-1,.78a19.17,19.17,0,0,1-2.2-.14,42.25,42.25,0,0,0-4.35-.39,27.15,27.15,0,0,0-3.74.3,11.26,11.26,0,0,1-1.36.15c-.47,0-.7-.2-.7-.58a.64.64,0,0,1,.47-.59,3.59,3.59,0,0,0,1.81-1.15,4.75,4.75,0,0,0,.39-2.3l0-.92v-9.8l0-1.08a6.55,6.55,0,0,0-.4-2.77,1.54,1.54,0,0,0-1.49-.77H288.5a.51.51,0,0,1-.42-.16.59.59,0,0,1-.14-.42.76.76,0,0,1,.42-.74,18.3,18.3,0,0,1,2.46-.71,16.9,16.9,0,0,0,5.83-2.42.59.59,0,0,1,.36-.17c.23,0,.34.16.34.53l-.09,1.39,0,1.59.16,1.06c.08.22.2.34.37.36s.44-.23.89-.75a8.28,8.28,0,0,1,6.75-3.12c3,0,5.17.91,6.47,2.74S313.82,367.25,313.82,371.45Z"/><path class="cls-2" d="M329.27,359.68a15.55,15.55,0,0,1,4.15.64c.76.22,1.17.59,1.22,1.09l.06,1.22.14,1.76.05.94a1.16,1.16,0,0,1,.06.34c0,.35-.2.52-.59.52s-.79-.6-1.47-1.82q-2-3.56-5-3.55a3.87,3.87,0,0,0-2.58.94,2.86,2.86,0,0,0-1.08,2.21q0,2.32,3.26,3.68l1.92.78a25,25,0,0,1,3.34,1.6,6.8,6.8,0,0,1,1.7,1.63,7.14,7.14,0,0,1,1.36,4.45,7.7,7.7,0,0,1-2.2,5.56,7.16,7.16,0,0,1-5.37,2.28,18.73,18.73,0,0,1-4.2-.58l-1.92-.48-1.26-.19a.7.7,0,0,1-.61-.78c0-.15,0-.38,0-.7a8.54,8.54,0,0,0,.06-1.08l-.09-3,0-1.36a1.5,1.5,0,0,1,.13-.79c.08-.1.3-.16.65-.16s.5.25.62.75a13,13,0,0,0,1.83,4.19,5.46,5.46,0,0,0,4.76,2.89,4,4,0,0,0,2.79-1,3.44,3.44,0,0,0,1.11-2.62,3.65,3.65,0,0,0-1.07-2.76A13.56,13.56,0,0,0,327,374a12.9,12.9,0,0,1-5-3,6.16,6.16,0,0,1-1.39-4.24A6.38,6.38,0,0,1,323,361.6,9.67,9.67,0,0,1,329.27,359.68Z"/><path class="cls-2" d="M347.81,363.16v13.58a5.88,5.88,0,0,0,.74,3.45,3.06,3.06,0,0,0,2.6,1,6.93,6.93,0,0,0,1.93-.38,5.58,5.58,0,0,0,1.69-.75.91.91,0,0,1,.44-.24q.33,0,.42.57l.05.29-.33.48a10.24,10.24,0,0,1-7.11,2.81,6.39,6.39,0,0,1-4.59-1.42,5.84,5.84,0,0,1-1.46-4.39v-15h-1.7c-.89,0-1.34-.24-1.34-.74,0-.3.23-.61.7-.93a25.7,25.7,0,0,0,3.44-3.09,24.69,24.69,0,0,0,3-3.48c.57-.91,1-1.35,1.28-1.33s.23.15.25.41v6.46h4a2.75,2.75,0,0,0,1.59-.36l.72-.47a1,1,0,0,1,.5-.2q.48,0,.45.45a2.22,2.22,0,0,1-.19.62,4.69,4.69,0,0,0-.34,1.23c-.2.95-.71,1.43-1.53,1.43Z"/><path class="cls-2" d="M366.57,360.87v15.75a6.72,6.72,0,0,0,.85,3.94,4.07,4.07,0,0,0,3.15,1.25c.62,0,.92.25.92.65s-.73.74-2.2.74c-.19,0-.59,0-1.2-.08l-2.09-.21c-1.15-.1-1.92-.16-2.29-.16a27.62,27.62,0,0,0-4,.39,5.29,5.29,0,0,1-.94.12c-.4,0-.59-.18-.59-.55a.64.64,0,0,1,.36-.57l.95-.47a2.49,2.49,0,0,0,1-1.44,6.66,6.66,0,0,0,.43-2.39l0-1.16v-9.41a7,7,0,0,0-.45-3,1.74,1.74,0,0,0-1.66-.83h-.64a.91.91,0,0,1-.72-.23.62.62,0,0,1-.09-.39q0-.7,1.71-1.08a16.89,16.89,0,0,0,6.67-2.7,1,1,0,0,1,.47-.19c.26,0,.39.19.39.52l0,.25C366.58,359.79,366.57,360.21,366.57,360.87Zm-3-15.19c.39,0,1.09.63,2.08,1.9l1.17,1.5a1.8,1.8,0,0,1,.44,1c0,.45-.49,1.29-1.52,2.53s-1.75,1.87-2.14,1.87a1.1,1.1,0,0,1-.75-.33l-1.3-1.59-1.22-1.39a1.75,1.75,0,0,1-.47-.95c0-.37.54-1.21,1.64-2.53S363.28,345.68,363.57,345.68Z"/><path class="cls-2" d="M381.87,363.16v13.58a6,6,0,0,0,.74,3.45,3.07,3.07,0,0,0,2.6,1,7,7,0,0,0,1.94-.38,5.38,5.38,0,0,0,1.68-.75.93.93,0,0,1,.45-.24q.33,0,.42.57l.05.29-.33.48A10.24,10.24,0,0,1,382.3,384a6.35,6.35,0,0,1-4.58-1.42,5.85,5.85,0,0,1-1.47-4.39v-15h-1.7c-.89,0-1.33-.24-1.33-.74,0-.3.23-.61.7-.93a25.77,25.77,0,0,0,3.43-3.09,24,24,0,0,0,3-3.48c.58-.91,1-1.35,1.28-1.33s.24.15.25.41v6.46h4a2.79,2.79,0,0,0,1.59-.36l.72-.47a1,1,0,0,1,.5-.2c.32,0,.46.13.45.45a2.29,2.29,0,0,1-.2.62,5.25,5.25,0,0,0-.33,1.23c-.21.95-.72,1.43-1.53,1.43Z"/><path class="cls-2" d="M416.25,360v17.23a7.24,7.24,0,0,0,.44,3.29q.45.63,2.4.63l.64,0a1.57,1.57,0,0,1,.5.06.62.62,0,0,1,.47.62c0,.66-.63,1-1.9,1h-1.34c-.76,0-1.36,0-1.78.06a22,22,0,0,0-4,.67,1.92,1.92,0,0,1-.5.08c-.41,0-.61-.34-.61-1a6.56,6.56,0,0,1,0-.95c0-.37.06-.65.06-.83,0-.56-.12-.85-.36-.86s-.24.11-.45.33l-1,1a8.19,8.19,0,0,1-6.14,2.67q-4.11,0-6.19-2.28t-2.09-6.75c0-3.95.08-7.37.22-10.26,0-.52,0-1,0-1.33,0-1.26-.54-1.94-1.64-2l-1.11-.09c-.52,0-.76-.29-.73-.76s.31-.6.86-.72a16.53,16.53,0,0,1,3.16-.19,12.45,12.45,0,0,0,3.88-.55,4.57,4.57,0,0,1,1.18-.23c.31,0,.47.22.47.64s0,1-.06,1.53c-.16,2-.25,5.4-.25,10.31,0,3.78.35,6.31,1,7.58s2.05,1.9,4.09,1.9a4.73,4.73,0,0,0,3.71-1.44,6,6,0,0,0,1.3-4.14V364.79a5.74,5.74,0,0,0-.43-2.9,4.09,4.09,0,0,0-2.43-.79c-.58-.06-.86-.28-.86-.68,0-.58.55-.88,1.67-.88a23.13,23.13,0,0,0,6.73-.66,1.59,1.59,0,0,1,.58-.14c.26,0,.39.16.39.55Z"/><path class="cls-2" d="M431.64,363.16v13.58a5.88,5.88,0,0,0,.74,3.45,3.06,3.06,0,0,0,2.6,1,6.93,6.93,0,0,0,1.93-.38,5.58,5.58,0,0,0,1.69-.75.91.91,0,0,1,.44-.24q.33,0,.42.57l.05.29-.33.48a10.24,10.24,0,0,1-7.11,2.81,6.39,6.39,0,0,1-4.59-1.42,5.84,5.84,0,0,1-1.46-4.39v-15h-1.7c-.89,0-1.34-.24-1.34-.74,0-.3.23-.61.7-.93a25.7,25.7,0,0,0,3.44-3.09,24.69,24.69,0,0,0,3-3.48c.57-.91,1-1.35,1.28-1.33s.23.15.25.41v6.46h4a2.75,2.75,0,0,0,1.59-.36l.72-.47a1,1,0,0,1,.5-.2q.48,0,.45.45a2.22,2.22,0,0,1-.19.62,4.69,4.69,0,0,0-.34,1.23c-.2.95-.71,1.43-1.53,1.43Z"/><path class="cls-2" d="M450.4,360.87v15.75a6.72,6.72,0,0,0,.85,3.94,4.07,4.07,0,0,0,3.15,1.25c.62,0,.92.25.92.65s-.73.74-2.2.74c-.19,0-.59,0-1.2-.08l-2.09-.21c-1.15-.1-1.92-.16-2.29-.16a27.62,27.62,0,0,0-4,.39,5.29,5.29,0,0,1-.94.12c-.4,0-.59-.18-.59-.55a.64.64,0,0,1,.36-.57l.95-.47a2.49,2.49,0,0,0,1-1.44,6.66,6.66,0,0,0,.43-2.39l0-1.16v-9.41a6.93,6.93,0,0,0-.46-3,1.74,1.74,0,0,0-1.66-.83H442a.92.92,0,0,1-.72-.23.62.62,0,0,1-.09-.39q0-.7,1.71-1.08a16.89,16.89,0,0,0,6.67-2.7,1,1,0,0,1,.47-.19c.26,0,.39.19.39.52l0,.25C450.41,359.79,450.4,360.21,450.4,360.87Zm-3-15.19c.38,0,1.08.63,2.07,1.9l1.17,1.5a1.8,1.8,0,0,1,.44,1c0,.45-.49,1.29-1.52,2.53s-1.75,1.87-2.14,1.87a1.1,1.1,0,0,1-.75-.33l-1.3-1.59-1.22-1.39a1.75,1.75,0,0,1-.47-.95c0-.37.54-1.21,1.64-2.53S447.11,345.68,447.41,345.68Z"/><path class="cls-2" d="M470,359.68A11.89,11.89,0,0,1,478.7,363a11.33,11.33,0,0,1,3.42,8.48,11.8,11.8,0,0,1-3.71,8.88,12.83,12.83,0,0,1-9.25,3.57,12,12,0,0,1-8.67-3.31,11,11,0,0,1-3.47-8.31,12,12,0,0,1,3.8-8.95A12.68,12.68,0,0,1,470,359.68Zm-1.44,1.53a4.93,4.93,0,0,0-4.27,2.28,10.47,10.47,0,0,0-1.58,6.12,16.25,16.25,0,0,0,2.44,9q2.43,3.77,5.87,3.77a5.12,5.12,0,0,0,4.26-2.15,8.81,8.81,0,0,0,1.65-5.53,17.82,17.82,0,0,0-2.44-9.59C472.88,362.53,470.9,361.21,468.58,361.21Z"/><path class="cls-2" d="M511.35,371.45v5.64a10.27,10.27,0,0,0,.19,2.46,2.68,2.68,0,0,0,.89,1.23,4.77,4.77,0,0,0,2.56,1c.58.08.87.3.87.67q0,.84-2,.84a9.9,9.9,0,0,1-1.2-.11l-1.82-.21a18.15,18.15,0,0,0-1.92-.13,21.7,21.7,0,0,0-4.24.33,6.2,6.2,0,0,1-1.11.12.55.55,0,0,1-.62-.62c0-.29.21-.53.64-.69a2.6,2.6,0,0,0,1.64-1.31,7.67,7.67,0,0,0,.42-3v-6.56a10.45,10.45,0,0,0-1.51-6,4.72,4.72,0,0,0-4.11-2.22,5.41,5.41,0,0,0-3.75,1.28,4.3,4.3,0,0,0-1.43,3.34v9.28a5.9,5.9,0,0,0,1,3.74,4.46,4.46,0,0,0,3.24,1.37c.52.06.78.27.78.64s-.32.78-1,.78a18.91,18.91,0,0,1-2.2-.14,42.61,42.61,0,0,0-4.36-.39,27,27,0,0,0-3.73.3,11.36,11.36,0,0,1-1.37.15c-.46,0-.7-.2-.7-.58A.64.64,0,0,1,487,382a3.6,3.6,0,0,0,1.8-1.15,4.73,4.73,0,0,0,.4-2.3l0-.92v-9.8l0-1.08a6.51,6.51,0,0,0-.41-2.77,1.53,1.53,0,0,0-1.49-.77H486a.54.54,0,0,1-.42-.16.59.59,0,0,1-.14-.42.78.78,0,0,1,.42-.74,18.3,18.3,0,0,1,2.46-.71,17,17,0,0,0,5.84-2.42.59.59,0,0,1,.36-.17c.22,0,.33.16.33.53l-.08,1.39,0,1.59.17,1.06q.1.33.36.36c.15,0,.45-.23.89-.75a8.28,8.28,0,0,1,6.75-3.12q4.53,0,6.47,2.74T511.35,371.45Z"/><path class="cls-2" d="M543.1,344.46a13.61,13.61,0,0,1,5.12,1l1.87.78a5.8,5.8,0,0,0,1.78.5,1.93,1.93,0,0,0,.81-.2l1.06-.52a.87.87,0,0,1,.44-.11c.39,0,.59.3.59.91l-.06,2.26a8,8,0,0,0,.06,1l.36,2.73.28,2.53a4.42,4.42,0,0,1,.05.56c0,.79-.23,1.19-.69,1.19s-.58-.35-.73-1a12,12,0,0,0-4.07-6.72,10.38,10.38,0,0,0-6.91-2.83,6.32,6.32,0,0,0-4.38,1.69,5.24,5.24,0,0,0-1.86,4,4.87,4.87,0,0,0,1.64,3.69q1.06,1,6.61,3.25,6.6,2.72,8.75,5.29a11.55,11.55,0,0,1,2.53,7.52,11.71,11.71,0,0,1-3.5,8.44,11.14,11.14,0,0,1-8.21,3.59,23,23,0,0,1-6.1-1.31c-1.3-.42-2.25-.7-2.87-.83a3.38,3.38,0,0,1-1.48-.49,3.3,3.3,0,0,1-.35-1.43,25.45,25.45,0,0,0-.84-3.79,25,25,0,0,1-1-4.84c0-.89.28-1.34.86-1.34.26,0,.44.23.55.67a17.78,17.78,0,0,0,4.74,8,10.09,10.09,0,0,0,7,3.24,7,7,0,0,0,5-2.15,6.66,6.66,0,0,0,2.22-4.92,5.53,5.53,0,0,0-1.16-3.61,10.74,10.74,0,0,0-4-2.66l-4.24-1.9q-6-2.67-8.14-5.05a9.11,9.11,0,0,1-2.14-6.33,10.59,10.59,0,0,1,3-7.69A9.92,9.92,0,0,1,543.1,344.46Z"/><path class="cls-2" d="M568.57,363.16v13.58a6,6,0,0,0,.74,3.45,3.07,3.07,0,0,0,2.6,1,7.05,7.05,0,0,0,1.94-.38,5.62,5.62,0,0,0,1.68-.75.91.91,0,0,1,.44-.24q.35,0,.42.57l.06.29-.34.48A10.2,10.2,0,0,1,569,384a6.39,6.39,0,0,1-4.59-1.42,5.88,5.88,0,0,1-1.46-4.39v-15h-1.7c-.89,0-1.33-.24-1.33-.74q0-.45.69-.93a25.09,25.09,0,0,0,3.44-3.09,24,24,0,0,0,3-3.48c.57-.91,1-1.35,1.28-1.33s.23.15.25.41v6.46h4a2.73,2.73,0,0,0,1.58-.36l.73-.47a.92.92,0,0,1,.5-.2c.31,0,.46.13.44.45a1.93,1.93,0,0,1-.19.62,5.67,5.67,0,0,0-.34,1.23c-.2.95-.71,1.43-1.53,1.43Z"/><path class="cls-2" d="M592.23,369.9a9.71,9.71,0,0,0,.3-2.18,7.34,7.34,0,0,0-1.33-4.55,4.16,4.16,0,0,0-3.44-1.76c-1.79,0-2.68.74-2.68,2.21a5.34,5.34,0,0,0,0,.81l.08.52c0,1.26-1.43,1.88-4.3,1.88-.75,0-1.1-.32-1.07-1a2.33,2.33,0,0,1,.14-.61c.06-.21.11-.45.17-.73a4.22,4.22,0,0,1,1.7-2.72,11.88,11.88,0,0,1,7.12-2.12q4.81,0,7.21,2.23,1.85,1.69,1.84,5.89c0,1.41-.06,3.18-.17,5.31-.11,2.44-.17,4.07-.17,4.89,0,1.91.77,2.86,2.29,2.86a2.8,2.8,0,0,0,1.19-.19,2,2,0,0,1,.64-.2.34.34,0,0,1,.39.39c0,.47-.36.9-1.08,1.31l-1.09.56-.94.55a4.59,4.59,0,0,1-2.2.53q-2.46,0-4.12-3.17-5.18,3.32-8.6,3.31a4.9,4.9,0,0,1-3.7-1.37,5.19,5.19,0,0,1-1.34-3.79,6.74,6.74,0,0,1,3.83-6.41Q585.32,371.18,592.23,369.9Zm-.56,1.61a6.23,6.23,0,0,0-4.56,1.7,5.36,5.36,0,0,0-2.17,4.09q0,3.68,2.95,3.67a5.83,5.83,0,0,0,3.2-.86,2.39,2.39,0,0,0,1-1.53,16.47,16.47,0,0,0,.28-3.59l0-2.14v-.59l-.16-.61A1.25,1.25,0,0,0,591.67,371.51Z"/><path class="cls-2" d="M612,363.16v13.58a6,6,0,0,0,.74,3.45,3.07,3.07,0,0,0,2.6,1,7,7,0,0,0,1.94-.38A5.38,5.38,0,0,0,619,380a1,1,0,0,1,.45-.24q.33,0,.42.57l0,.29-.33.48a10.24,10.24,0,0,1-7.11,2.81,6.36,6.36,0,0,1-4.59-1.42,5.85,5.85,0,0,1-1.47-4.39v-15h-1.69c-.9,0-1.34-.24-1.34-.74,0-.3.23-.61.7-.93a26.34,26.34,0,0,0,3.44-3.09,24.45,24.45,0,0,0,3-3.48c.58-.91,1-1.35,1.28-1.33s.24.15.25.41v6.46h4a2.79,2.79,0,0,0,1.59-.36l.72-.47a1,1,0,0,1,.5-.2q.48,0,.45.45a2.29,2.29,0,0,1-.2.62,5.25,5.25,0,0,0-.33,1.23c-.21.95-.72,1.43-1.53,1.43Z"/><path class="cls-2" d="M632.39,359.63a9.75,9.75,0,0,1,7.43,3.39,8.55,8.55,0,0,1,2.62,5.73c0,.73-.5,1.09-1.5,1.09l-1.28,0H639l-1.69,0-5.26.09-2.75,0-.94,0a1.76,1.76,0,0,0-1,.19,1.39,1.39,0,0,0-.3,1,9.79,9.79,0,0,0,2.4,6.52,7.11,7.11,0,0,0,5.54,2.83,7.75,7.75,0,0,0,5.64-2.05l.89-.87a.66.66,0,0,1,.47-.22c.41,0,.62.19.62.58s-.72,1.44-2.15,2.7a12.06,12.06,0,0,1-8.13,3.34,10.13,10.13,0,0,1-7.84-3.31,12.14,12.14,0,0,1-3-8.55,12.84,12.84,0,0,1,3.25-8.76A9.9,9.9,0,0,1,632.39,359.63Zm-.78,1.42a4.07,4.07,0,0,0-3.29,1.85,7,7,0,0,0-1.41,4.36c0,.53.13.86.4,1a8.12,8.12,0,0,0,2.17.16c.61,0,1.26,0,1.94-.05,1.66-.08,2.62-.11,2.88-.11,1.62,0,2.43-.5,2.43-1.49a5.74,5.74,0,0,0-1.56-4A4.7,4.7,0,0,0,631.61,361.05Z"/><polygon class="cls-2" points="141.97 69.42 141.97 69.33 141.87 66.14 141.82 64.43 141.61 58.98 141.43 52.9 141.39 51.76 141.37 50.51 141.3 47.55 141.24 46.67 137.42 46.62 134.87 46.58 133.72 46.53 133.43 46.52 132.25 46.45 128.79 46.5 127.87 46.46 126.39 46.4 126.37 46.4 122.15 46.4 119.46 46.39 118.81 46.4 117.01 46.35 112.66 46.26 111.48 46.26 109.94 46.24 109.19 46.23 107.13 46.52 106.62 46.84 105.77 46.82 105.64 46.82 105.53 46.49 104.19 46.45 102.42 46.24 101.2 46.13 99.02 46.18 99.05 46.46 99.02 46.62 98.92 46.78 98.75 46.93 98.52 48.06 96.34 48.44 96.4 47.35 96.46 46.09 92.78 46.07 90.98 46.07 89.7 46.03 87.95 45.97 86.55 45.91 86.21 45.91 86.06 45.9 85.94 45.9 82.42 45.73 75.95 45.45 75.67 45.45 74.53 45.39 73.66 45.37 73.61 45.37 72.22 45.28 66.75 45.25 66.64 48.44 66.62 48.98 66.19 54.32 66.05 56.08 65.75 60.54 65.57 63.18 65.24 67.81 65.23 68.08 65.14 69.48 65.08 70.44 64.66 76.36 64.56 77.85 64 85.01 63.94 85.75 63.6 89.91 65.3 92.62 66.24 94.08 66.61 94.65 59.7 98.74 55.57 101.19 57.94 105.06 58.33 105.68 58.77 106.49 58.76 106.62 58.7 106.81 58.67 106.91 58.66 106.94 58.61 107.08 58.58 107.24 58.58 107.37 58.58 107.48 58.6 107.58 58.59 107.77 58.59 107.83 58.59 107.91 58.59 107.99 58.72 108.23 58.77 107.64 58.82 107.61 58.98 107.4 59.12 107.26 59.25 106.86 59.55 106.89 59.66 107 59.97 107.05 60.15 106.91 60.24 106.67 60.18 106.49 60.67 106.45 60.75 106.51 60.92 106.43 61.05 106.19 61.19 106.14 61.24 105.89 61.43 105.57 61.59 105.7 61.65 105.89 61.65 106.14 61.73 106.24 61.84 106.35 62.17 106.19 62.28 105.84 62.44 105.78 62.6 105.94 62.6 106.16 62.66 106.35 62.42 106.61 62.03 106.8 61.93 107.13 62.2 107.15 62.58 107.05 62.82 106.8 62.91 106.59 63.01 106.43 63.18 106.29 63.37 105.92 63.77 105.75 63.85 105.41 63.8 105.11 64.24 105.16 64.38 105.35 64.4 105.51 64.45 105.7 64.48 105.78 64.59 105.94 64.89 105.89 64.92 105.7 64.98 105.43 64.84 105.22 64.81 104.92 65.19 104.92 65.43 104.95 65.55 104.65 65.55 104.31 65.54 103.93 65.73 103.93 66.01 104.11 66.11 104.47 66.25 104.73 66.55 104.38 66.69 104.86 66.74 104.89 66.96 104.76 67.2 104.14 67.26 103.82 67.56 103.79 67.53 104.11 67.99 103.95 68.1 103.68 68.35 103.79 68.46 103.98 68.59 104 68.73 103.98 68.73 103.39 68.89 103.55 68.98 103.49 69.08 103.39 69.22 103.25 69.27 102.95 69.35 102.74 69.49 102.77 69.84 102.9 70.03 102.72 69.92 102.56 69.92 102.34 69.76 102.18 69.79 101.86 69.73 101.61 69.87 101.67 69.98 101.61 70.09 101.8 70.11 101.97 70.23 102.05 70.28 102.07 70.31 101.91 70.39 101.83 70.5 102.1 70.47 102.39 70.66 102.28 70.8 102.02 71.07 101.72 71.42 101.64 71.77 101.58 71.8 101.37 71.64 101.34 71.36 101.21 71.44 100.81 72.32 101.18 72.65 100.94 72.78 100.62 73.06 100.67 73.38 100.81 73.52 100.81 73.6 100.64 73.92 100.45 74.33 100.45 74.66 100.26 74.8 100.16 75.04 99.86 75.37 99.7 75.69 100 75.83 100.13 76.03 100.26 76.22 100.34 76.4 100.32 76.73 100.07 76.89 99.94 77.19 99.75 77.33 99.61 77.41 99.32 77.57 98.94 77.65 98.81 77.87 98.89 78.06 98.81 78.42 98.51 78.58 98.14 79.21 97.74 79.31 97.71 79.31 97.95 79.07 98.27 78.96 98.49 78.86 98.67 78.86 98.86 78.91 98.94 79.01 98.94 79.34 98.43 79.69 98.11 80.05 97.92 80.19 97.89 80.21 97.82 80.19 97.62 80.11 97.46 79.97 97.31 79.97 97.12 80.21 97.01 80.4 97.25 80.7 97.36 80.94 97.22 81 97.46 81.03 97.62 81.06 97.76 81.25 97.94 81.52 98 81.71 97.89 81.93 97.92 82.01 98.16 81.82 98.29 81.58 98.24 81.49 98.35 81.8 98.61 82.15 98.67 82.56 98.64 82.83 98.59 83.05 98.5 83.48 98.42 83.67 98.34 83.73 98.21 83.62 98.04 83.32 97.83 83.32 97.49 83.37 97.35 83.64 97.21 83.94 96.73 84.32 96.22 84.67 95.9 85.16 95.76 85.3 95.63 85.36 95.47 85.46 95.34 85.52 95.17 85.65 95.01 85.71 94.99 85.82 94.93 85.9 94.91 86.01 95.01 86.14 95.09 86.23 95.22 86.45 95.41 86.55 95.25 86.8 95.22 87.18 95.17 87.29 95.33 87.48 95.28 87.59 95.19 87.7 95.09 87.78 94.95 87.89 94.77 87.99 94.55 88.02 94.36 88.51 94.15 88.7 93.8 88.78 93.53 88.95 93.56 89.24 93.53 89.46 93.31 89.79 92.72 90.28 92.35 91.07 92.08 91.23 91.92 91.37 91.73 91.58 91.51 91.66 91.38 91.61 91.3 91.06 91.17 91.17 90.81 91.74 90.44 91.91 90.17 92.07 89.93 92.61 89.61 93.02 89.47 93.19 89.31 92.99 89.87 92.64 90.06 92.56 90.3 92.54 90.57 92.56 91.03 92.54 91.35 92.62 91.56 92.73 91.62 92.81 91.75 92.92 92.02 92.89 92.18 92.62 92.39 92.54 92.69 92.89 92.91 93.06 93.01 93.28 92.96 93.71 93.01 93.85 92.95 94.06 92.87 94.39 92.85 94.66 92.63 94.99 92.2 95.29 92.12 95.34 92.28 95.42 92.5 95.51 92.6 95.56 92.6 95.67 92.52 95.78 92.25 95.86 92.01 95.92 91.77 96.16 91.87 96.59 91.82 96.71 91.9 96.68 92.09 96.57 92.17 96.35 92.38 96.35 92.54 96.46 92.62 96.63 92.54 96.79 92.54 96.95 92.22 97.25 92.11 97.42 92.03 97.58 92.01 97.79 91.73 98.07 91.68 98.39 91.73 98.58 91.68 98.94 91.6 99.1 91.52 99.32 91.66 99.32 91.84 99.38 92 99.54 92.05 99.81 91.95 99.97 92 100.06 92.29 100.55 92.08 100.71 92.16 100.87 92.27 101.14 92.18 101.36 92.05 101.45 92.18 101.42 92.31 101.39 92.43 101.15 92.64 101.31 92.91 101.61 92.83 101.72 92.72 101.8 92.77 102.1 92.77 102.15 92.72 102.23 92.53 102.37 92.26 102.51 92.34 102.67 92.23 102.67 92.1 102.75 91.75 102.92 91.64 103.08 91.59 103.19 91.43 103.54 91.67 103.76 91.69 104.2 91.61 104.47 91.51 104.69 91.45 104.88 91.34 105.37 91.34 105.61 91.45 105.88 91.42 106.32 91.47 106.7 91.39 107.05 91.42 107.44 91.58 107.82 91.89 108.09 92.22 108.34 92.48 108.47 92.67 108.69 92.59 108.83 92.51 108.88 92.29 108.91 92.11 108.99 91.92 109.21 91.81 109.29 91.76 109.4 91.68 109.56 91.46 109.67 91.6 109.64 91.84 109.67 91.97 109.7 92.08 109.95 92.18 110.13 92.23 110.25 92.13 110.3 91.89 110.41 91.76 110.57 91.62 110.89 91.48 111.22 91.35 111.63 91.43 111.91 91.53 112.06 91.4 112.31 91.13 112.58 90.92 112.96 90.84 113.16 90.89 113.51 90.97 113.78 91.02 113.95 90.99 114.08 90.94 114.33 90.88 114.6 90.88 114.9 90.91 115.14 91.15 115.23 91.42 115.31 91.58 115.39 91.79 115.5 91.93 115.69 91.82 115.96 91.68 116.18 91.76 116.45 91.73 116.97 91.46 117.21 91.44 117.38 91.41 117.46 91.41 117.41 91.17 117.27 91.09 116.92 91.09 116.48 91.22 116.37 91.22 116.31 91.14 116.37 90.96 116.48 90.74 116.86 90.79 117.27 90.66 117.29 90.58 117.21 90.42 117.05 90.28 116.78 90.29 116.59 90.34 116.47 90.34 116.42 90.16 116.5 89.86 116.83 89.91 116.96 89.51 116.96 88.97 117.04 88.46 116.91 88.17 116.88 87.95 116.79 87.74 116.58 87.42 116.28 87.23 115.81 87.37 115.6 87.13 115.56 86.91 115.56 86.64 115.54 86.56 115.51 86.43 115.46 86.27 115.32 86.11 115.32 85.97 115.29 85.87 115.43 85.6 115.56 86 115.67 86.13 115.76 86.16 115.86 86.11 115.86 85.89 116.03 85.65 116.16 85.52 116.11 85.95 116.25 86.4 116.36 86.53 116.46 86.75 116.66 86.83 116.9 86.88 117.06 86.99 117.45 87.34 117.59 87.87 117.45 88.49 117.37 88.94 117.43 89.35 117.64 89.56 117.73 89.77 117.89 89.8 118 89.96 118.05 90.04 118.17 90.12 118.22 90.2 118.25 90.34 118.27 90.44 118.3 90.58 118.33 90.87 118.44 90.89 118.82 90.89 119.64 90.76 120.51 90.49 120.84 90.57 121.11 90.54 121.49 90.19 121.68 89.95 121.7 89.68 122.31 89.57 122.47 89.7 122.79 89.57 123.04 89.92 123.34 90.1 123.39 90.35 123.61 90.37 123.83 90.21 123.72 89.46 123.72 89 123.75 88.68 124.12 88.36 124.42 88.3 124.64 88.36 124.86 88.33 125.11 88.62 125.16 88.92 125.41 89.24 125.6 89.1 125.57 88.92 125.76 88.7 126.03 88.78 126.2 89.1 126.39 89.31 126.52 89.37 126.74 89.45 127.02 89.45 127.26 89.42 127.67 89.42 128.1 89.26 128.46 89.04 128.62 88.8 128.7 88.42 128.67 88.08 128.51 87.72 128.26 87.35 128.26 87.08 128.32 86.95 128.42 86.63 128.45 86.28 128.5 85.93 128.36 85.16 128.36 84.75 128.33 84.37 128.55 83.97 128.6 84.11 128.69 84.27 128.72 84.35 128.72 84.99 129.04 85.69 129.08 86.46 129.16 87.21 129.22 87.62 129.33 87.91 129.47 88.26 129.66 88.34 129.93 88.58 130.15 88.36 130.55 88.06 130.63 88.12 130.58 88.42 130.72 88.42 130.83 88.47 130.99 88.5 131.13 88.63 131.34 88.71 131.53 88.68 131.83 88.3 131.81 88.12 131.94 87.9 132.1 88.09 132.1 88.46 132.24 88.81 132.33 89.11 132.54 89.08 132.68 88.92 132.65 88.57 132.78 88.38 133 88.27 133.22 88.43 133.49 87.89 133.52 87.66 133.98 86.71 134.47 86.66 134.63 87.27 134.8 87.19 134.93 87.35 135.13 87.38 135.51 87.33 135.67 87.48 135.83 87.59 136.11 87.83 136.29 87.78 136.35 87.27 136.49 87.13 136.68 87.21 136.84 87.8 137 87.53 137.36 87.43 137.74 87.05 137.99 87.08 138.07 87.37 138.34 87.31 138.69 87.53 138.83 88.09 139.35 87.85 139.57 87.68 139.89 87.44 140.08 87.3 140.18 87.17 140.24 86.98 140.23 86.82 140.18 86.66 140.1 86.49 139.98 86.26 139.92 86.02 139.87 85.83 139.89 85.64 139.94 85.51 139.99 85.27 140.04 84.94 140.07 84.62 140.01 84.46 139.96 84.3 139.9 84.2 139.8 84.09 139.71 83.93 139.7 83.77 139.69 83.63 139.69 83.47 139.66 83.34 139.68 83.23 139.75 83.1 139.79 82.99 139.88 82.94 139.99 82.88 140.09 82.83 140.26 82.71 140.42 82.61 140.52 82.52 140.66 82.42 140.79 82.36 141.59 82.59 141.7 82.42 141.75 80.52 141.95 73.54 141.93 72.66 141.94 71.75 141.97 69.42"/><polygon class="cls-2" points="134.11 87.2 133.98 87.14 133.96 87.49 133.82 87.73 133.9 87.89 134.04 88.03 134.23 88.13 134.31 88 134.31 87.78 134.39 87.3 134.33 87.09 134.11 87.2"/></g><g id="Borders"><path class="cls-3" d="M810,18a36,36,0,0,1,36,36V378a36,36,0,0,1-36,36H54a36,36,0,0,1-36-36V54A36,36,0,0,1,54,18H810m0-18H54A54,54,0,0,0,0,54V378a54,54,0,0,0,54,54H810a54,54,0,0,0,54-54V54A54,54,0,0,0,810,0Z"/><path class="cls-2" d="M819,26.64A18.39,18.39,0,0,1,837.36,45V387A18.39,18.39,0,0,1,819,405.36H45A18.39,18.39,0,0,1,26.64,387V45A18.39,18.39,0,0,1,45,26.64H819M819,18H45A27,27,0,0,0,18,45V387a27,27,0,0,0,27,27H819a27,27,0,0,0,27-27V45a27,27,0,0,0-27-27Z"/></g><g id="Holes"><circle class="cls-3" cx="180.32" cy="46.8" r="10.8"/><circle class="cls-3" cx="683.68" cy="46.8" r="10.8"/><circle class="cls-3" cx="683.68" cy="385.2" r="10.8"/><circle class="cls-3" cx="180.32" cy="385.2" r="10.8"/></g></svg>