<svg xmlns="http://www.w3.org/2000/svg" xmlns:xlink="http://www.w3.org/1999/xlink" viewBox="0 0 864 432"><defs><style>.cls-1{fill:#fff;}.cls-2{fill:url(#linear-gradient);}.cls-3{fill:#2f292b;}</style><linearGradient id="linear-gradient" x1="432" y1="18" x2="432" y2="414" gradientUnits="userSpaceOnUse"><stop offset="0" stop-color="#ffe96f"/><stop offset="1" stop-color="#fdf8dd"/></linearGradient></defs><g id="Design"><path class="cls-1" d="M810,18a36,36,0,0,1,36,36V378a36,36,0,0,1-36,36H54a36,36,0,0,1-36-36V54A36,36,0,0,1,54,18H810m0-18H54A54,54,0,0,0,0,54V378a54,54,0,0,0,54,54H810a54,54,0,0,0,54-54V54A54,54,0,0,0,810,0Z"/><rect class="cls-2" x="18" y="18" width="828" height="396" rx="28.8"/><path d="M257.5,43.74l24,27,1.54,1.73c2.06,2.3,3.43,3.45,4.13,3.45s1-.92,1-2.77q.4-10,.41-19.1,0-10.65-2.16-14.42T278,35.38c-1-.06-1.5-.42-1.5-1.06,0-.81.44-1.21,1.32-1.21a46.87,46.87,0,0,1,5.28.46,35.75,35.75,0,0,0,3.91.27A90.42,90.42,0,0,0,297,33a12.38,12.38,0,0,1,1.32-.1c1,0,1.45.44,1.45,1.3s-.48,1.23-1.45,1.38q-5.87,1.09-5.86,10.39v2.23l-.64,28.36-.19,3.9,0,5,0,3.45.19,5.67c0,.84-.31,1.25-.92,1.22a2.54,2.54,0,0,1-1.68-1L247.89,48.91c-.73-.78-1.22-1.18-1.5-1.18-.72,0-1.09.68-1.09,2l0,1.32v17.6q0,14.11,1.41,18.87,1.5,5.09,8.85,5.77c.91.09,1.36.47,1.36,1.15a1.24,1.24,0,0,1-1.41,1.39,13.93,13.93,0,0,1-1.77-.18,51.09,51.09,0,0,0-8.46-.64,46.57,46.57,0,0,0-8.19.65,16.79,16.79,0,0,1-2.32.26q-1.23,0-1.23-1.11c0-.62.44-1,1.32-1.3a7.51,7.51,0,0,0,4.83-3.92c1-2,1.52-4.82,1.52-8.54l.32-10.78V50.65q0-13.95-10.31-14.68c-.94-.06-1.41-.44-1.41-1.15,0-.87.52-1.3,1.55-1.3l3.14.14,1.92,0c2.36,0,4.9-.14,7.6-.41,1-.09,1.84-.13,2.51-.13a3.63,3.63,0,0,1,2.22.61,32.18,32.18,0,0,1,3.44,3.75l3.13,3.67Z"/><path d="M320.59,57a15.92,15.92,0,0,1,12.13,5.54Q337,67.26,337,71.94c0,1.18-.82,1.77-2.45,1.77l-2.08-.09h-1l-2.76,0-8.57.14-4.49,0-1.54,0a2.82,2.82,0,0,0-1.67.32,2.19,2.19,0,0,0-.5,1.68,15.91,15.91,0,0,0,3.92,10.63q3.92,4.62,9,4.62a12.64,12.64,0,0,0,9.2-3.34l1.45-1.42a1.1,1.1,0,0,1,.77-.37c.67,0,1,.32,1,1,0,.88-1.17,2.34-3.5,4.4q-6.17,5.44-13.26,5.45a16.57,16.57,0,0,1-12.8-5.4q-4.95-5.42-4.95-13.94A21,21,0,0,1,308,63.08Q313.33,57.05,320.59,57Zm-1.26,2.32a6.69,6.69,0,0,0-5.38,3,11.42,11.42,0,0,0-2.3,7.12c0,.87.22,1.4.65,1.58a13.12,13.12,0,0,0,3.55.27c1,0,2,0,3.16-.09,2.71-.12,4.27-.18,4.7-.18,2.64,0,4-.82,4-2.44a9.33,9.33,0,0,0-2.55-6.46A7.67,7.67,0,0,0,319.33,59.36Z"/><path d="M395.07,68.11,382.49,95.23c-.3.67-.65,1-1.05,1-.75,0-1.4-.63-1.95-1.91l-8.26-19.39c-.43-1-.84-1.54-1.23-1.54s-.92.71-1.68,2.13L357.74,95.23a1.55,1.55,0,0,1-1.32,1c-.36,0-.68-.32-.95-1L343.21,66.89l-1-2.41q-1.54-3.57-4-4.49a1,1,0,0,1-.81-1c0-.71.22-1.07.68-1.07a8.12,8.12,0,0,1,.9,0,60.6,60.6,0,0,0,8.61.54q2.22,0,6.39-.41c.54-.06.92-.09,1.13-.09.78,0,1.19.34,1.22,1a1,1,0,0,1-.77,1q-3.27,1.19-3.27,4A7.38,7.38,0,0,0,353,67l5.7,13.78c.67,1.63,1.33,2.45,2,2.45q.56,0,1.23-1.23L368,71.21a3.72,3.72,0,0,0,.64-1.77q0-1.35-2.18-5.24c-1.15-2.17-2.58-3.5-4.27-4-.67-.18-1-.55-1-1.11,0-.77.3-1.16.91-1.16a7.64,7.64,0,0,1,1.4.14,57.5,57.5,0,0,0,8.2.45c.64,0,2-.07,4-.23l2.45-.13c.73-.06,1.19-.09,1.4-.09.85,0,1.27.32,1.27,1a1,1,0,0,1-.72,1.12l-1.5.36c-1.39.36-2.09,1.4-2.09,3.13a7.28,7.28,0,0,0,.68,2.76l6.15,14.68c.36.85.76,1.27,1.18,1.27s1.16-.72,1.92-2.17l1.77-3.58c3-6,4.56-10.09,4.56-12.33q0-3.77-4.05-4.12c-1-.1-1.49-.5-1.49-1.21s.47-1,1.4-1c1.55,0,2.85,0,3.91.09l4.68.27,2.13-.18c.49,0,.82,0,1,0,.67,0,1,.35,1,1.06,0,.53-.32.91-1,1.16-1.63.67-3.22,2.81-4.76,6.44Z"/><path d="M445,45.05V81.81l0,4.08a31.31,31.31,0,0,1-1.34,10,23.84,23.84,0,0,1-4.7,7.88q-6.39,7.44-10.89,7.44a5.41,5.41,0,0,1-1.78-.27l-2.54-.82-2.22-.59a2,2,0,0,1-.91-1.91,8.87,8.87,0,0,1,.23-1.9l1.09-5.77c.15-.88.46-1.32.91-1.32.83,0,1.87.69,3.13,2.06l1.75,2c1.35,1.49,2.51,2.24,3.47,2.24q3.49,0,3.5-8.67l-.09-3.36V58.63q0-10.53-.25-14a14.43,14.43,0,0,0-1.12-5.2,4.51,4.51,0,0,0-2.38-2.22,21.9,21.9,0,0,0-5.61-1c-.91-.09-1.36-.54-1.36-1.34,0-1,.69-1.57,2.09-1.57.69,0,1.72.06,3.08.18,4.27.4,6.68.59,7.22.59a41.15,41.15,0,0,0,4.77-.4q6.54-.78,7.63-.78c1.36,0,2.05.42,2.05,1.25,0,.53-.46.93-1.37,1.21a5.11,5.11,0,0,0-3.4,2.83Q445,40.24,445,45.05Z"/><path d="M475.08,57a15.92,15.92,0,0,1,12.12,5.54q4.28,4.68,4.27,9.36c0,1.18-.81,1.77-2.44,1.77l-2.09-.09h-1l-2.77,0-8.56.14-4.49,0-1.54,0a2.86,2.86,0,0,0-1.68.32,2.23,2.23,0,0,0-.5,1.68,16,16,0,0,0,3.92,10.63q3.93,4.62,9,4.62a12.62,12.62,0,0,0,9.2-3.34L490,86.29a1.12,1.12,0,0,1,.78-.37c.66,0,1,.32,1,1,0,.88-1.17,2.34-3.5,4.4q-6.18,5.44-13.26,5.45a16.58,16.58,0,0,1-12.81-5.4q-4.95-5.42-4.95-13.94a21.05,21.05,0,0,1,5.29-14.31Q467.82,57.05,475.08,57Zm-1.27,2.32a6.66,6.66,0,0,0-5.37,3,11.36,11.36,0,0,0-2.31,7.12c0,.87.22,1.4.66,1.58a13.08,13.08,0,0,0,3.54.27c1,0,2.05,0,3.16-.09,2.71-.12,4.28-.18,4.7-.18,2.65,0,4-.82,4-2.44a9.33,9.33,0,0,0-2.55-6.46A7.65,7.65,0,0,0,473.81,59.36Z"/><path d="M511.77,72.65V85.39q0,7.17,6.72,8.07c.94.12,1.41.5,1.41,1.11,0,.78-.35,1.16-1,1.16a7.55,7.55,0,0,1-1.27-.13,62.52,62.52,0,0,0-9.37-.69c-1.7,0-3.24.07-4.6.19l-2.82.27a13.86,13.86,0,0,1-1.59.09c-.86,0-1.28-.4-1.28-1.2,0-.56.38-.93,1.14-1.12q3.58-.86,3.58-6.74l0-1.9V68.29c0-2.18-.28-3.62-.84-4.33s-1.77-1.14-3.61-1.29c-.7-.06-1-.38-1-1s.41-1.08,1.23-1.21A30.46,30.46,0,0,0,509,57l1.77-1a1.29,1.29,0,0,1,.68-.22c.46,0,.68.33.68,1,0,.22,0,.66,0,1.32L512,60.58l-.18,2.82.05.5c.12.42.34.65.67.68s1-.7,2-2.18a18.32,18.32,0,0,1,3.76-3.7c1.69-1.32,2.86-2,3.49-2,1,0,2.58.79,4.63,2.37s3.1,2.75,3.13,3.54A15.3,15.3,0,0,1,528,65.81q-1.87,3.5-3.3,3.49a1.58,1.58,0,0,1-1.08-.45l-1.26-1.14a7.55,7.55,0,0,0-5.28-2.13Q511.76,65.58,511.77,72.65Z"/><path d="M547.65,57.13a24.79,24.79,0,0,1,6.76,1c1.24.36,1.91,1,2,1.77l.09,2,.23,2.86.09,1.54a2.08,2.08,0,0,1,.09.55c0,.57-.32.86-1,.86-.49,0-1.29-1-2.39-3Q550.34,59,545.45,59a6.2,6.2,0,0,0-4.21,1.53,4.63,4.63,0,0,0-1.77,3.61q0,3.78,5.32,6l3.13,1.27A41.65,41.65,0,0,1,553.37,74a11.1,11.1,0,0,1,2.77,2.66,11.72,11.72,0,0,1,2.22,7.26A12.6,12.6,0,0,1,554.78,93,11.74,11.74,0,0,1,546,96.73a31.05,31.05,0,0,1-6.86-1L536,95l-2-.32a1.14,1.14,0,0,1-1-1.27c0-.25,0-.62,0-1.14a15.33,15.33,0,0,0,.09-1.77l-.13-5-.05-2.23a2.41,2.41,0,0,1,.21-1.29c.13-.17.49-.25,1.06-.25s.82.41,1,1.22a21.76,21.76,0,0,0,3,6.84q3,4.7,7.76,4.7a6.43,6.43,0,0,0,4.55-1.69,5.58,5.58,0,0,0,1.81-4.27,5.93,5.93,0,0,0-1.75-4.51c-1.16-1.11-3.38-2.32-6.65-3.61q-5.85-2.27-8.13-4.84a10.07,10.07,0,0,1-2.27-6.92,10.32,10.32,0,0,1,3.82-8.44Q541.15,57.14,547.65,57.13Z"/><path d="M582.11,57a16,16,0,0,1,12.13,5.54q4.26,4.68,4.26,9.36c0,1.18-.81,1.77-2.44,1.77L594,73.62h-1l-2.77,0-8.56.14-4.49,0-1.54,0a2.86,2.86,0,0,0-1.68.32,2.23,2.23,0,0,0-.5,1.68,16,16,0,0,0,3.92,10.63q3.93,4.62,9.05,4.62a12.66,12.66,0,0,0,9.2-3.34L597,86.29a1.08,1.08,0,0,1,.77-.37c.66,0,1,.32,1,1,0,.88-1.17,2.34-3.5,4.4Q589.1,96.73,582,96.73a16.58,16.58,0,0,1-12.81-5.4q-4.94-5.42-5-13.94a21,21,0,0,1,5.3-14.31Q574.84,57.05,582.11,57Zm-1.27,2.32a6.66,6.66,0,0,0-5.37,3,11.36,11.36,0,0,0-2.3,7.12c0,.87.21,1.4.65,1.58a13.08,13.08,0,0,0,3.54.27c1,0,2,0,3.17-.09,2.7-.12,4.27-.18,4.69-.18,2.65,0,4-.82,4-2.44a9.34,9.34,0,0,0-2.56-6.46A7.65,7.65,0,0,0,580.84,59.36Z"/><path d="M615.41,67.21,623.18,82c.73,1.36,1.26,2,1.59,2s1.14-1.14,2-3.41l2-5.09q3.07-7.76,3.08-11.12a4.09,4.09,0,0,0-1.34-2.93,6.71,6.71,0,0,0-3.3-1.79c-.81-.16-1.24-.47-1.27-1,0-.66.31-1,1-1q.5,0,1.5.09a60.12,60.12,0,0,0,6.56.41,37.21,37.21,0,0,0,4.1-.18,15.26,15.26,0,0,1,1.54-.13c.61,0,.91.33.91,1s-.39,1-1.18,1.23c-1.81.48-3.36,2.3-4.63,5.45l-.91,2.27-16.8,41.73a1.92,1.92,0,0,1-1.8,1.41c-.24,0-.63,0-1.17,0l-2.53-.18c-.48,0-.7-.21-.67-.54a1.9,1.9,0,0,1,.41-.91q7.41-9.18,7.41-12.53a7.66,7.66,0,0,0-1-3l-14.5-28.56-1.22-2.45A6.06,6.06,0,0,0,599.78,60c-.55-.21-.82-.51-.82-.9,0-.79.45-1.18,1.36-1.18a10,10,0,0,1,1.31.09,67.58,67.58,0,0,0,7,.4,69.18,69.18,0,0,0,8.25-.49,5.48,5.48,0,0,1,.91-.1A1.05,1.05,0,0,1,619,59a1.18,1.18,0,0,1-1.09,1.22l-1.41.23a2.71,2.71,0,0,0-2.55,2.9A11.12,11.12,0,0,0,615.41,67.21Z"/><path class="cls-3" d="M244.52,380.38v-7.7H264.1v23.54h-3.9L256.9,391a18.39,18.39,0,0,1-6.1,4.68,17.88,17.88,0,0,1-7.37,1.44A20.86,20.86,0,0,1,233,394.35a19.92,19.92,0,0,1-7.79-8.28,28.62,28.62,0,0,1-3-13.62,30,30,0,0,1,2.85-13.61,19.87,19.87,0,0,1,7.89-8.55,22.31,22.31,0,0,1,11.35-2.89q9,0,13.79,4.91a21.52,21.52,0,0,1,6,11l-12.32,1.95c-.86-5.52-3.3-8.28-7.35-8.28q-8.34,0-8.35,15.26a37.72,37.72,0,0,0,.83,8.74,9.54,9.54,0,0,0,2.6,4.94,6.73,6.73,0,0,0,4.64,1.58,7.69,7.69,0,0,0,4.74-1.26,6,6,0,0,0,2.14-2.71,16.15,16.15,0,0,0,.75-3.15Z"/><path class="cls-3" d="M301.39,372.45v16.93q0,2.3.12,3.51a20.25,20.25,0,0,0,.74,3.33H291.08a34.92,34.92,0,0,1-.42-3.61q-5.37,4.33-10.81,4.33a10.15,10.15,0,0,1-7.2-2.6,8.71,8.71,0,0,1-2.8-6.68,10.32,10.32,0,0,1,5.32-9.38q5.31-3.22,15.49-3.23v-2.6a4,4,0,0,0-1.23-3.12,5,5,0,0,0-3.46-1.12,5.1,5.1,0,0,0-3.41,1,5.42,5.42,0,0,0-1.62,3.22l-9.51-2.3a10.47,10.47,0,0,1,2.88-4.71,13.13,13.13,0,0,1,5.23-3,23.5,23.5,0,0,1,7.22-1q7.49,0,11.06,2.58T301.39,372.45Zm-10.73,7.93h-.88a10.92,10.92,0,0,0-6.22,1.66,4.91,4.91,0,0,0-2.48,4.17,4.22,4.22,0,0,0,1.15,3,3.67,3.67,0,0,0,2.81,1.23,10.25,10.25,0,0,0,5.62-2.23Z"/><path class="cls-3" d="M309.3,396.22V362.17h11.16v7q5-7.35,12.67-7.35v11.09a15.9,15.9,0,0,0-5.46-1.16q-5.26,0-7.21,3.9v20.59Z"/><path class="cls-3" d="M358,396.22v-4q-4.14,4.76-9.52,4.75a11.11,11.11,0,0,1-6.64-2.05,12.88,12.88,0,0,1-4.36-5.87,24.18,24.18,0,0,1-1.52-9q0-8.46,3.45-13.24a13.23,13.23,0,0,1,4.36-3.92,10.88,10.88,0,0,1,5.29-1.4,10.23,10.23,0,0,1,4.44,1,18.76,18.76,0,0,1,4.5,3.27V348H369.2v48.24Zm0-25a6.18,6.18,0,0,0-5-2.88,4.32,4.32,0,0,0-3.93,2.54,15,15,0,0,0-1.4,7.11Q347.74,390,353,390q2.29,0,5-3Z"/><path class="cls-3" d="M400.3,384.77l7.2,3.45q-4.87,8.71-15,8.72a18.85,18.85,0,0,1-9.09-2.17,15.68,15.68,0,0,1-6.25-6.1,17.63,17.63,0,0,1-2.24-8.87,19.17,19.17,0,0,1,2.28-9.22,17.37,17.37,0,0,1,6.19-6.69,15.83,15.83,0,0,1,8.53-2.44,15.17,15.17,0,0,1,8.32,2.35,16.06,16.06,0,0,1,5.79,6.53,20.47,20.47,0,0,1,2.09,9.33v1.65H386.69q.36,8,7,8Q398.09,389.31,400.3,384.77Zm-13.54-9.37H397q-.21-7-4.9-7a4.55,4.55,0,0,0-3.8,2A8.51,8.51,0,0,0,386.76,375.4Z"/><path class="cls-3" d="M413.83,396.22V362.17H425v5.54q5.29-6.27,11.09-6.26a9.77,9.77,0,0,1,4.32,1,8,8,0,0,1,3.17,2.71,7.32,7.32,0,0,1,1.2,2.66,21.84,21.84,0,0,1,.31,4.25v24.19H433.92V375.7a16.74,16.74,0,0,0-.36-4.18,2.93,2.93,0,0,0-3-2.16q-3.23,0-5.6,3.67v23.19Z"/><path class="cls-3" d="M472.09,388l8.14-6.4a12.52,12.52,0,0,0,4.59,4.73,13.68,13.68,0,0,0,6.64,1.46,10.39,10.39,0,0,0,5.4-1.21,3.6,3.6,0,0,0,2-3.19c0-1.72-1.46-3-4.36-3.94s-5.93-1.81-9.06-2.69a19.27,19.27,0,0,1-8.06-4.47q-3.36-3.14-3.36-9.5a14,14,0,0,1,2.37-8,15.62,15.62,0,0,1,6.62-5.48,22.73,22.73,0,0,1,9.59-2q11,0,17.05,7.49l-7.7,6.26a14.2,14.2,0,0,0-4.18-3.55,10.5,10.5,0,0,0-4.89-1.06,8.74,8.74,0,0,0-4.71,1.15,3.34,3.34,0,0,0-1.85,2.88c0,1.67,1.43,2.92,4.27,3.73s5.91,1.65,9.19,2.51a19.06,19.06,0,0,1,8.33,4.47q3.42,3.2,3.42,9.75a15.19,15.19,0,0,1-2.36,8.45,15.4,15.4,0,0,1-6.71,5.62,23.92,23.92,0,0,1-10,2Q477.7,397.08,472.09,388Z"/><path class="cls-3" d="M520.69,387.28V369.92l-6.05.07v-7.91l6.26.23,1-11.74H532v11.74l7.21-.23V370l-7.28-.07v12.76a17.47,17.47,0,0,0,.29,3.71,2.69,2.69,0,0,0,1.41,1.8,7.73,7.73,0,0,0,3.56.61,15.69,15.69,0,0,0,2.23-.14v7.56a30.66,30.66,0,0,1-6.19.58,24.69,24.69,0,0,1-7.8-.95,6.25,6.25,0,0,1-3.71-3A12.65,12.65,0,0,1,520.69,387.28Z"/><path class="cls-3" d="M575.13,372.45v16.93q0,2.3.12,3.51a20.25,20.25,0,0,0,.74,3.33H564.83a30.17,30.17,0,0,1-.42-3.61q-5.38,4.33-10.81,4.33a10.18,10.18,0,0,1-7.21-2.6,8.74,8.74,0,0,1-2.8-6.68,10.34,10.34,0,0,1,5.32-9.38q5.33-3.22,15.5-3.23v-2.6a4,4,0,0,0-1.23-3.12,5,5,0,0,0-3.47-1.12,5.12,5.12,0,0,0-3.41,1,5.47,5.47,0,0,0-1.61,3.22l-9.51-2.3a10.45,10.45,0,0,1,2.87-4.71,13.2,13.2,0,0,1,5.23-3,23.54,23.54,0,0,1,7.22-1q7.5,0,11.06,2.58T575.13,372.45Zm-10.72,7.93h-.88a10.9,10.9,0,0,0-6.22,1.66,4.89,4.89,0,0,0-2.48,4.17,4.26,4.26,0,0,0,1.14,3,3.69,3.69,0,0,0,2.81,1.23,10.3,10.3,0,0,0,5.63-2.23Z"/><path class="cls-3" d="M585.92,387.28V369.92l-6,.07v-7.91l6.25.23,1-11.74h10.08v11.74l7.2-.23V370l-7.27-.07v12.76a16.82,16.82,0,0,0,.29,3.71,2.68,2.68,0,0,0,1.4,1.8,7.76,7.76,0,0,0,3.56.61,15.69,15.69,0,0,0,2.23-.14v7.56a30.62,30.62,0,0,1-6.18.58,24.76,24.76,0,0,1-7.81-.95,6.25,6.25,0,0,1-3.71-3A12.65,12.65,0,0,1,585.92,387.28Z"/><path class="cls-3" d="M634,384.77l7.2,3.45q-4.87,8.71-15,8.72a18.85,18.85,0,0,1-9.09-2.17,15.61,15.61,0,0,1-6.25-6.1,17.63,17.63,0,0,1-2.24-8.87,19.28,19.28,0,0,1,2.27-9.22,17.47,17.47,0,0,1,6.2-6.69,15.81,15.81,0,0,1,8.53-2.44,15.17,15.17,0,0,1,8.32,2.35,16.06,16.06,0,0,1,5.79,6.53,20.47,20.47,0,0,1,2.09,9.33v1.65H620.34q.36,8,7,8Q631.73,389.31,634,384.77Zm-13.54-9.37h10.23q-.21-7-4.9-7a4.54,4.54,0,0,0-3.8,2A8.51,8.51,0,0,0,620.41,375.4Z"/></g><g id="Holes"><circle class="cls-1" cx="180.32" cy="46.8" r="10.8"/><circle class="cls-1" cx="683.68" cy="46.8" r="10.8"/><circle class="cls-1" cx="683.68" cy="385.2" r="10.8"/><circle class="cls-1" cx="180.32" cy="385.2" r="10.8"/></g></svg>