<svg xmlns="http://www.w3.org/2000/svg" viewBox="0 0 864 432"><defs><style>.cls-1{fill:#fff;}.cls-2{fill:#00295d;}.cls-3{fill:#f5b700;}.cls-4{fill:none;stroke:#fff;stroke-miterlimit:10;stroke-width:2.5px;}</style></defs><g id="Design"><rect class="cls-1" x="18" y="104.4" width="828" height="223.2"/><rect class="cls-2" x="18" y="18" width="828" height="86.4"/><rect class="cls-3" x="18" y="327.6" width="828" height="86.4"/><path class="cls-1" d="M238.29,67.55h-5V81.19h-7.76v-40h12.82c10.83,0,15.51,4,15.51,13S249.51,67.55,238.29,67.55Zm-.22-19.85h-4.78V61H238c5.72,0,7.7-1.71,7.7-6.77C245.72,49.62,243.35,47.7,238.07,47.7Z"/><path class="cls-1" d="M259.8,81.19v-40H286V47.7H267.55v9.51h16.67v6.38H267.55V74.7H286v6.49Z"/><path class="cls-1" d="M316.28,81.19,299.84,51.88V81.19h-7.26v-40h9.35l15.56,27.55V41.21h7.26v40Z"/><path class="cls-1" d="M356.15,81.19,339.71,51.88V81.19h-7.26v-40h9.35l15.56,27.55V41.21h7.26v40Z"/><path class="cls-1" d="M385.86,82c-8.31,0-12.87-2.85-16.23-8l6.33-3.8A11,11,0,0,0,386,75.69c3.52,0,7.53-1.43,7.53-5.11S391,65.46,384,64c-8.63-1.82-13.53-4.51-13.53-12,0-7,5.34-11.6,14.91-11.6,7,0,11.65,2.58,14.62,7.31l-6.16,3.74a9.49,9.49,0,0,0-8.46-4.73c-4.84,0-7.21,2.14-7.21,5.06,0,3.08,2.92,4.18,8.47,5.39C394,58.7,401.25,61,401.25,70.41,401.25,77.89,395.26,82,385.86,82Z"/><path class="cls-1" d="M424.47,65V81.19h-7.76V65.46L403.29,41.21h8.47l9,16.72,9.29-16.72H438Z"/><path class="cls-1" d="M442.29,81.19v-40H450V74.7H468v6.49Z"/><path class="cls-1" d="M489.42,81.19h-8.2l-13.52-40h8l9.78,30.36,10-30.36h7.59Z"/><path class="cls-1" d="M530.06,81.19,527,72h-14.9l-3,9.24h-7.65l13.14-40h10.07l13.36,40Zm-10.5-32.5-5.56,17h11.06Z"/><path class="cls-1" d="M566.36,81.19,549.92,51.88V81.19h-7.26v-40H552l15.56,27.55V41.21h7.26v40Z"/><path class="cls-1" d="M580.89,81.19v-6h5.16v-28h-5.16v-6H599v6h-5.17v28H599v6Z"/><path class="cls-1" d="M630.44,81.19l-3-9.24h-14.9l-3,9.24H601.9l13.14-40H625.1l13.37,40Zm-10.51-32.5-5.55,17h11Z"/><path class="cls-2" d="M301.52,387.5h-5.61l-10.73-28.59h7.32l6.38,19,6.43-19h7Z"/><path class="cls-2" d="M318.79,387.5V364.19h-4.51v-5.28h11.6V387.5ZM322,355.39c-2.86,0-4.34-1.27-4.34-3.74s1.65-3.79,4.34-3.79c2.15,0,4.35.88,4.35,3.79C326.38,354.23,324.78,355.39,322,355.39Z"/><path class="cls-2" d="M343,388.33c-4.84,0-9.57-1.54-11.82-5.5l5.17-3.13a7.64,7.64,0,0,0,6.71,3.3c2.47,0,5.33-.61,5.33-3,0-1.65-1.37-2.36-4.95-3.24-6.05-1.49-11.33-3.14-11.33-9.79,0-6.38,5.78-8.86,11.55-8.86,4.73,0,8.85,1.6,11.16,5.23l-5.17,3.08a7,7,0,0,0-6.1-3c-2.86,0-4.62.93-4.62,2.91s2.53,2.7,6.38,3.69c4.67,1.21,9.9,2.69,9.9,9.18C355.25,385.86,349.2,388.33,343,388.33Z"/><path class="cls-2" d="M363,387.5V364.19h-4.51v-5.28H370V387.5Zm3.25-32.11c-2.86,0-4.35-1.27-4.35-3.74s1.65-3.79,4.35-3.79c2.14,0,4.34.88,4.34,3.79C370.54,354.23,368.94,355.39,366.2,355.39Z"/><path class="cls-2" d="M387.09,388.33c-6.71,0-8.74-3.19-8.74-10.06V364.19h-4.07v-5.28h4.07V351l7.09-3.46v11.38h6.66v5.28h-6.66v13.25c0,3.85.33,5.28,3,5.28a9,9,0,0,0,3.19-.66l1.7,5.28A24,24,0,0,1,387.09,388.33Z"/><path class="cls-2" d="M410.41,373.87h-5V387.5h-7.75v-40h12.81c10.83,0,15.51,4,15.51,13S421.63,373.87,410.41,373.87ZM410.19,354h-4.78v13.31h4.73c5.72,0,7.7-1.7,7.7-6.76C417.84,355.94,415.47,354,410.19,354Z"/><path class="cls-2" d="M453.2,387.5l-3-9.23H435.27l-3,9.23h-7.64l13.14-40h10.07l13.36,40ZM442.7,355l-5.56,17.05H448.2Z"/><path class="cls-2" d="M469.21,388.11c-3.14,0-4.24-1.54-4.24-4,0-2.75,1.32-4,4.24-4s4.34,1.21,4.34,4C473.55,387.07,472,388.11,469.21,388.11Z"/><path class="cls-2" d="M498.19,366.83a6.16,6.16,0,0,0-5.55-3.08c-5.34,0-6.6,4.07-6.6,9.51s1.37,9.41,6.93,9.41a10.09,10.09,0,0,0,5.94-2.09l3.63,4.84a17,17,0,0,1-10,2.91c-9.9,0-13.86-5.88-13.86-15.07,0-9.4,4-15.18,13.86-15.18,4.78,0,8.36,1.71,10.83,5.56Z"/><path class="cls-2" d="M519,388.33c-10.83,0-13.86-7.2-13.86-15.07,0-8,3-15.18,13.86-15.18s13.81,7.21,13.81,15.18S529.76,388.33,519,388.33Zm0-24.58c-4.4,0-6.49,2.86-6.49,9.51,0,6.49,2.09,9.41,6.49,9.41s6.44-3,6.44-9.41C525.42,366.61,523.33,363.75,519,363.75Z"/><path class="cls-2" d="M571.72,387.5V370.68c0-5-.6-6.44-3.08-6.44-1.76,0-4.56,1.76-6.48,3.58V387.5h-7.1V370.68c0-5.23-.77-6.44-3.08-6.44-1.92,0-4.78,1.93-6.49,3.58V387.5H538.4V358.91h6.65v3.46c2.26-2.14,5.67-4.29,9.08-4.29,4,0,6.27,1.76,7.15,4.57,2.74-2.53,6-4.57,9.56-4.57,6.16,0,8,4,8,10.18V387.5Z"/><path id="PA" class="cls-4" d="M60.08,41.89l1.15-.19,5.56-3.56-.57,5.75,28.43.21,31.41-.3,1.5,2.26,2.47.84.71,4.9,1.65,1.94,2.22.79.06.1L132,56.82l-.51,2.53-2.06,2.22L129,63.08l.84,1.28-.47,1.52-2.14.5.25,2.94v.93l2.23.71.33,2.19,4.17,4.16-.06.32-3,1.94-1.58,1.55-1.85,2-2.41.53-1.19,0-1.93.71-1.53.88-19-.17H68.71l-9.46-.72L56,84.31l-.48-19.13.76-21.86Z"/></g><g id="Borders"><path class="cls-1" d="M810,18a36,36,0,0,1,36,36V378a36,36,0,0,1-36,36H54a36,36,0,0,1-36-36V54A36,36,0,0,1,54,18H810m0-18H54A54,54,0,0,0,0,54V378a54,54,0,0,0,54,54H810a54,54,0,0,0,54-54V54A54,54,0,0,0,810,0Z"/><path class="cls-2" d="M819,24.48A20.55,20.55,0,0,1,839.52,45V387A20.55,20.55,0,0,1,819,407.52H45A20.55,20.55,0,0,1,24.48,387V45A20.55,20.55,0,0,1,45,24.48H819M819,18H45A27,27,0,0,0,18,45V387a27,27,0,0,0,27,27H819a27,27,0,0,0,27-27V45a27,27,0,0,0-27-27Z"/></g><g id="Holes"><circle class="cls-1" cx="180.32" cy="46.8" r="10.8"/><circle class="cls-1" cx="683.68" cy="46.8" r="10.8"/><circle class="cls-1" cx="683.68" cy="385.2" r="10.8"/><circle class="cls-1" cx="180.32" cy="385.2" r="10.8"/></g></svg>