<svg xmlns="http://www.w3.org/2000/svg" viewBox="0 0 864 432"><defs><style>.a{fill:#eee;}.b{fill:#022169;}.c{fill:#fff;}.d{fill:#e49838;}.e{opacity:0.03;}</style></defs><rect class="a" x="9" y="9" width="846" height="414" rx="30.6"/><path class="a" d="M824.4,18A21.6,21.6,0,0,1,846,39.6V392.4A21.6,21.6,0,0,1,824.4,414H39.6A21.6,21.6,0,0,1,18,392.4V39.6A21.6,21.6,0,0,1,39.6,18H824.4m0-18H39.6A39.64,39.64,0,0,0,0,39.6V392.4A39.64,39.64,0,0,0,39.6,432H824.4A39.64,39.64,0,0,0,864,392.4V39.6A39.64,39.64,0,0,0,824.4,0Z"/><path class="b" d="M20.88,18H843.12A2.88,2.88,0,0,1,846,20.88V111.6a0,0,0,0,1,0,0H18a0,0,0,0,1,0,0V20.88A2.88,2.88,0,0,1,20.88,18Z"/><circle class="c" cx="180.32" cy="46.8" r="10.8"/><circle class="c" cx="683.68" cy="46.8" r="10.8"/><rect class="b" x="18" y="363.6" width="216" height="7.2"/><rect class="d" x="18" y="378" width="216" height="14.4"/><path class="b" d="M18,399.6H234a0,0,0,0,1,0,0v7.2a0,0,0,0,1,0,0H20.88A2.88,2.88,0,0,1,18,403.92V399.6a0,0,0,0,1,0,0Z"/><rect class="b" x="630" y="363.6" width="216" height="7.2"/><rect class="d" x="630" y="378" width="216" height="14.4"/><path class="b" d="M630,399.6H846a0,0,0,0,1,0,0v4.32a2.88,2.88,0,0,1-2.88,2.88H630a0,0,0,0,1,0,0v-7.2A0,0,0,0,1,630,399.6Z"/><rect class="d" x="18" y="118.8" width="828" height="7.2"/><circle class="c" cx="683.68" cy="385.2" r="10.8"/><circle class="c" cx="180.32" cy="385.2" r="10.8"/><path class="b" d="M264,368.4v1.65c-1.5.15-3,.3-3,2.2a16.61,16.61,0,0,0,1,4l5.8,17.95,5.45-16.4-1-3.05-.4-1c-.8-2.35-1.75-3.5-4.3-3.7V368.4h15.7v1.65c-1.55.05-3.15.35-3.15,2.25a10.24,10.24,0,0,0,.55,2.45l6.45,19.75,6.1-18.3a9.05,9.05,0,0,0,.6-2.8c0-2.5-2.2-3.35-4.35-3.35V368.4h12v1.65c-2.65.55-3.8.4-6.45,8.3l-9,27.25h-3.45l-8.15-23.8-7.9,23.8H263l-9.9-30.85c-.95-2.9-1.2-4.3-4.6-4.7V368.4Z"/><path class="b" d="M300.38,405v-1.55c1.8,0,3.3-.2,3.3-4.1V389.2c0-2.65-.65-4.45-3.55-4.8v-1.55l10.75-3.05v20.4c.05,2.95,1.7,3.25,3.2,3.25V405Zm6.55-37.5a4.2,4.2,0,1,1-4.2,4.2A4.19,4.19,0,0,1,306.93,367.5Z"/><path class="b" d="M325.38,367.5v32.7c0,2.95,1.7,3.25,3.2,3.25V405H314.83v-1.55c1.8,0,3.35-.2,3.35-4.1V376.9c-.05-2.65-.65-4.45-3.55-4.8v-1.55Z"/><path class="b" d="M347.88,376.65c0-2.85-.75-4.65-3.85-4.85v-1.55l11.05-2.75v31.25c0,2.7.65,4.4,3.7,4.7V405a74.43,74.43,0,0,0-10.9.9v-3.25a9.44,9.44,0,0,1-7,3c-7.1,0-11.25-5.35-11.25-12.2,0-9.4,6.6-13.1,11.25-13.1a11.78,11.78,0,0,1,7,2.75Zm0,9.05a9.38,9.38,0,0,0-5.3-2.4c-1.8,0-5.45,1.85-5.45,9.3,0,3.5,1.45,10,6,10,2.2,0,3.45-1.25,4.75-2.8Z"/><path class="b" d="M386.88,368.4v1.65c-1.5.15-2.95.3-2.95,2.2a16.61,16.61,0,0,0,.95,4l5.8,17.95,5.45-16.4-1-3.05-.4-1c-.8-2.35-1.75-3.5-4.3-3.7V368.4h15.7v1.65c-1.55.05-3.15.35-3.15,2.25a10.24,10.24,0,0,0,.55,2.45L410,394.5l6.1-18.3a9.05,9.05,0,0,0,.6-2.8c0-2.5-2.2-3.35-4.35-3.35V368.4h12v1.65c-2.65.55-3.8.4-6.45,8.3l-8.95,27.25h-3.45l-8.15-23.8-7.9,23.8h-3.5L376,374.75c-.95-2.9-1.2-4.3-4.6-4.7V368.4Z"/><path class="b" d="M419.48,393.3c0-8.65,7.35-13,13.5-13a11.79,11.79,0,0,1,12.2,11.95c0,7.65-5.15,13.35-12.9,13.35C425.32,405.6,419.48,400.4,419.48,393.3Zm7.2-.15c0,3.7.8,10.5,5.75,10.5s5.55-6.95,5.55-10.5-.4-10.9-5.45-10.9S426.68,389.45,426.68,393.15Z"/><path class="b" d="M456.87,400.2c0,2.95,1.7,3.25,3.2,3.25V405h-13.7v-1.55c1.8,0,3.3-.2,3.3-4.1V389.2c0-2.65-.65-4.45-3.55-4.8v-1.55l10.75-3.05v4.6c2.5-1.8,5.36-4.1,8.61-4.1a7.44,7.44,0,0,1,7.25,7.25V400.2c0,2.95,1.7,3.25,3.2,3.25V405h-13.7v-1.55c1.79,0,3.29-.2,3.29-4.1V391c0-4.95-1.2-6.4-4-6.4a6.4,6.4,0,0,0-4.65,2.65Z"/><path class="b" d="M495.48,376.65c0-2.85-.75-4.65-3.86-4.85v-1.55l11.06-2.75v31.25c0,2.7.65,4.4,3.7,4.7V405a74.3,74.3,0,0,0-10.9.9v-3.25a9.44,9.44,0,0,1-7,3c-7.11,0-11.26-5.35-11.26-12.2,0-9.4,6.6-13.1,11.26-13.1a11.8,11.8,0,0,1,7,2.75Zm0,9.05a9.41,9.41,0,0,0-5.3-2.4c-1.81,0-5.46,1.85-5.46,9.3,0,3.5,1.45,10,6,10,2.2,0,3.45-1.25,4.75-2.8Z"/><path class="b" d="M514.47,392.85c0,4.65,3.25,9.75,8.5,9.75,2.85,0,5.45-1.65,7.35-3.65l1.2,1.05c-3.1,3.65-6.45,5.6-11.35,5.6-6.9,0-12.9-4.65-12.9-12a14.34,14.34,0,0,1,3.25-9,11.59,11.59,0,0,1,9.25-4.3c7,0,11.71,5.5,11.55,12.55Zm10.45-2.15c0-4.9-.95-8.25-4.9-8.25-4.3,0-5.6,5-5.65,8.25Z"/><path class="b" d="M543.12,400.2c.15,2.75,1.4,3.25,3.55,3.25V405H532.42v-1.55c2.25,0,3.5-.3,3.5-4.1v-10c0-2.65-.65-4.45-3.55-4.8V383L543.12,380v5.75c1.75-2.2,4.65-5.9,7.7-5.9,2,0,3.4,2,3.4,3.9a3.23,3.23,0,0,1-3.15,3.3c-1.55,0-3.2-1.25-4.3-1.25s-3,2.35-3.65,3.3Z"/><path class="b" d="M572.17,380.7v2.35h-5.5V400.2c0,2.65,1.2,3.25,4,3.25V405H555.42v-1.55c2.65,0,4.05-.1,4.05-4.1v-16.3H555V380.7h4.35a14.62,14.62,0,0,1,3-9.35,9.28,9.28,0,0,1,7.9-3.85c2.65,0,5.65,1.35,5.65,4.35a3.3,3.3,0,0,1-3.4,3.35c-2.95,0-3.5-3.45-5.3-3.45-.9,0-1.1.95-1.05,1.7.35,3.4,0,.8.6,7.25Z"/><path class="b" d="M590.12,401.55c-2.65,2.15-5.55,4.05-9.1,4.05-4.8,0-6.85-3.25-6.85-7.4v-9c0-2.65-.65-4.45-3.55-4.8v-1.55l10.75-3.05v18.3a3.19,3.19,0,0,0,3.5,3.25c2,0,3.85-1.45,5.25-2.65v-9.5c0-2.65-.65-4.45-3.55-4.8v-1.55l10.75-3.05v18.95c0,2.65.65,4.45,3.6,4.7V405h-10.8Z"/><path class="b" d="M612.27,367.5v32.7c0,2.95,1.7,3.25,3.2,3.25V405H601.72v-1.55c1.8,0,3.35-.2,3.35-4.1V376.9c-.05-2.65-.65-4.45-3.55-4.8v-1.55Z"/><path class="d" d="M240.42,33.86v2.48c-2.25.22-4.43.45-4.43,3.3a24.8,24.8,0,0,0,1.43,6l8.7,26.92L254.29,48l-1.5-4.57-.6-1.5c-1.2-3.53-2.63-5.25-6.45-5.55V33.86h23.55v2.48c-2.33.07-4.73.52-4.73,3.37a15.46,15.46,0,0,0,.83,3.68L275.06,73l9.15-27.45a13.55,13.55,0,0,0,.9-4.2c0-3.75-3.3-5-6.52-5V33.86h18v2.48c-4,.82-5.7.6-9.68,12.45L273.49,89.66h-5.18L256.09,54l-11.85,35.7H239L224.14,43.39c-1.42-4.35-1.8-6.45-6.9-7V33.86Z"/><path class="d" d="M297.56,70.54c0,7,4.88,14.62,12.75,14.62,4.28,0,8.18-2.47,11-5.47l1.8,1.57c-4.65,5.48-9.68,8.4-17,8.4-10.35,0-19.34-7-19.34-17.92a21.52,21.52,0,0,1,4.87-13.58,17.4,17.4,0,0,1,13.87-6.45c10.43,0,17.55,8.25,17.33,18.83Zm15.68-3.23c0-7.35-1.43-12.37-7.35-12.37-6.45,0-8.4,7.5-8.47,12.37Z"/><path class="d" d="M354.71,63.19l-2.92,1c-3.53-4.28-8.93-9.6-14.85-9.6-2.7,0-5.77,1.65-5.77,4.65,0,4.57,7.5,5,10.72,5.55,6.75,1.12,14.55,3.52,14.55,11.85a13,13,0,0,1-4.5,10c-3.23,2.7-7.43,3.67-13.95,2.7a29.71,29.71,0,0,0-4.43-.75,15.41,15.41,0,0,0-6.89,1.5l-3.75-13,2.7-.82c4,5,9.59,10.5,16.42,10.5,2.7,0,5.85-1.35,5.85-4.5,0-4.43-5.18-5.63-8.63-6.38-6.82-1.42-15.52-3.52-15.52-12.15,0-7,5.93-12.15,12.75-12.15,3.07,0,6.67,1.5,9,1.5A9.27,9.27,0,0,0,351,51Z"/><path class="d" d="M354.12,55.84V52.31c9.59-.9,11.09-6.3,13.34-13.12h2.85V52.31h10.43v3.53H370.16v23c0,2.78,1,5.4,4.8,5.4,2,0,4.2-1.42,5.78-2.7l1.72,1.65c-2.85,3.68-7.95,6.45-12.52,6.45-8,0-10.58-6.15-10.58-10.42V55.84Z"/><path class="d" d="M417,33.86v2.48c-5.32.37-5.92,1.42-5.92,3.15a9.8,9.8,0,0,0,.82,3.22L423.41,75l9.83-28.2a17.75,17.75,0,0,0,1.27-5.1c0-3.83-2.92-5.18-6.22-5.4V33.86h18.45v2.48c-4.65,1-6.83,1.65-10.13,11.85L422.36,89.66h-6.3L400.84,47.29c-1.73-4.73-3-10.35-8.85-10.95V33.86Z"/><path class="d" d="M442.46,88.76V86.44c2.7,0,5-.3,5-6.15V65.06c0-4-1-6.67-5.32-7.2V55.54L458.21,51v30.6c.08,4.43,2.55,4.88,4.8,4.88v2.32Zm9.83-56.25a6.3,6.3,0,1,1-6.3,6.3A6.29,6.29,0,0,1,452.29,32.51Z"/><path class="d" d="M477.34,81.56c.22,4.13,2.1,4.88,5.32,4.88v2.32H461.29V86.44c3.37,0,5.25-.45,5.25-6.15v-15c0-4-1-6.68-5.33-7.2V55.76l16.13-4.57v8.62c2.62-3.3,7-8.85,11.55-8.85,3,0,5.1,3,5.1,5.85a4.85,4.85,0,0,1-4.73,4.95c-2.32,0-4.8-1.87-6.45-1.87s-4.57,3.52-5.47,5Z"/><path class="d" d="M493.24,83.44c0-4,4.12-5.63,7.12-7.13l.68-.37c-4.65-2.1-8.18-5.4-8.18-10.8,0-9.08,9.75-13.43,17.63-13.43a25.66,25.66,0,0,1,7.2,1.13c1.72-3.38,5.39-7.28,9.44-7.28a4.43,4.43,0,1,1-.07,8.85c-1.8,0-3.6-1.35-4.65-1.35-.75,0-1.12.45-1.58,1,4,2.55,6.83,5.62,6.83,10.65,0,9.15-9.75,13.12-17.62,13.12a22,22,0,0,1-5-.6c-.83.45-2.18,1.13-2.18,2.18s1,1.65,1.88,2c2.17.6,15.52,1.35,19.72,2.55,4,1.2,7.12,3.67,7.12,8.17,0,6.15-5.62,11.63-23.09,11.63-4.73,0-17.1-.3-17.1-7.2,0-3.9,4.05-5.48,7.2-6.53C495.86,88.39,493.24,87.11,493.24,83.44Zm9.52,7.35a6.1,6.1,0,0,0-2.77,4.8c0,5.17,6.45,5.62,10.2,5.62,3.22,0,12.22-.15,12.22-4.95,0-2.17-.67-2.92-7.42-3.67Zm14.85-25.5c0-4.2-1.57-10.65-6.82-10.65s-7.13,5.4-7.13,9.75,1.5,10.5,6.9,10.5C515.66,74.89,517.61,69.71,517.61,65.29Z"/><path class="d" d="M527.44,88.76V86.44c2.7,0,4.95-.3,4.95-6.15V65.06c0-4-1-6.67-5.33-7.2V55.54L543.18,51v30.6c.08,4.43,2.55,4.88,4.8,4.88v2.32Zm9.82-56.25a6.3,6.3,0,1,1-6.3,6.3A6.29,6.29,0,0,1,537.26,32.51Z"/><path class="d" d="M561.86,81.56c0,4.43,2.55,4.88,4.8,4.88v2.32H546.11V86.44c2.7,0,4.95-.3,4.95-6.15V65.06c0-4-1-6.67-5.32-7.2V55.54L561.86,51v6.9c3.75-2.7,8-6.15,12.9-6.15,6.75,0,10.87,6.08,10.87,10.88v19c.08,4.43,2.55,4.88,4.8,4.88v2.32H569.88V86.44c2.7,0,5-.3,5-6.15V67.69c0-7.43-1.8-9.6-6-9.6-2.77,0-5.25,1.87-7,4Z"/><path class="d" d="M588.63,88.76V86.44c2.7,0,5-.3,5-6.15V65.06c0-4-1-6.67-5.32-7.2V55.54L604.38,51v30.6c.08,4.43,2.55,4.88,4.8,4.88v2.32Zm9.83-56.25a6.3,6.3,0,1,1-6.3,6.3A6.29,6.29,0,0,1,598.46,32.51Z"/><path class="d" d="M641.81,80.06c.07,1.88-.08,4.2,2.55,4.2a5.55,5.55,0,0,0,1.87-.45l.53,1.35a10.9,10.9,0,0,1-8.33,4.5,8.45,8.45,0,0,1-7.42-4.5,19.45,19.45,0,0,1-12.68,4.5c-6.14,0-11-2.85-11-9.45,0-10.5,15.75-13.35,23.7-14.62v-2c0-3.6.3-9.37-5-9.37-3.68,0-4.58,2.77-5.63,5.62-.89,2.55-2.62,5.33-5.55,5.33a4.58,4.58,0,0,1-4.72-4.35c0-3.68,4.42-9.08,17.17-9.08,3.3,0,8.33.6,11,2.78,3.37,2.77,3.45,6.15,3.45,9.6ZM631,68.89c-6,.67-12.45,3.15-12.45,10.27,0,3.38,1.73,6,5.25,6,2.77,0,5.47-2.1,7.2-4.12Z"/><g class="e"><path d="M824.4,18A21.6,21.6,0,0,1,846,39.6V392.4A21.6,21.6,0,0,1,824.4,414H39.6A21.6,21.6,0,0,1,18,392.4V39.6A21.6,21.6,0,0,1,39.6,18H824.4m0-18H39.6A39.64,39.64,0,0,0,0,39.6V392.4A39.64,39.64,0,0,0,39.6,432H824.4A39.64,39.64,0,0,0,864,392.4V39.6A39.64,39.64,0,0,0,824.4,0Z"/></g></svg>